<mxfile host="app.diagrams.net"><diagram name="Árbol DOM"><mxGraphModel><root><mxCell id="0" /><mxCell id="1" parent="0" /><mxCell id="2" value="document" style="rounded=1;whiteSpace=wrap;html=1;fontSize=11;" vertex="1" parent="1"><mxGeometry x="20" y="20" width="280" height="28" as="geometry" /></mxCell><mxCell id="3" value="html" style="rounded=1;whiteSpace=wrap;html=1;fontSize=11;" vertex="1" parent="1"><mxGeometry x="280" y="20" width="280" height="28" as="geometry" /></mxCell><mxCell id="4" value="head" style="rounded=1;whiteSpace=wrap;html=1;fontSize=11;" vertex="1" parent="1"><mxGeometry x="540" y="20" width="280" height="28" as="geometry" /></mxCell><mxCell id="5" value="meta" style="rounded=1;whiteSpace=wrap;html=1;fontSize=11;" vertex="1" parent="1"><mxGeometry x="800" y="20" width="280" height="28" as="geometry" /></mxCell><mxCell id="6" value="meta" style="rounded=1;whiteSpace=wrap;html=1;fontSize=11;" vertex="1" parent="1"><mxGeometry x="800" y="54" width="280" height="28" as="geometry" /></mxCell><mxCell id="7" value="meta" style="rounded=1;whiteSpace=wrap;html=1;fontSize=11;" vertex="1" parent="1"><mxGeometry x="800" y="88" width="280" height="28" as="geometry" /></mxCell><mxCell id="8" value="title" style="rounded=1;whiteSpace=wrap;html=1;fontSize=11;" vertex="1" parent="1"><mxGeometry x="800" y="122" width="280" height="28" as="geometry" /></mxCell><mxCell id="9" value="body#top" style="rounded=1;whiteSpace=wrap;html=1;fontSize=11;" vertex="1" parent="1"><mxGeometry x="540" y="54" width="280" height="28" as="geometry" /></mxCell><mxCell id="10" value="header#site-header" style="rounded=1;whiteSpace=wrap;html=1;fontSize=11;" vertex="1" parent="1"><mxGeometry x="800" y="156" width="280" height="28" as="geometry" /></mxCell><mxCell id="11" value="div.stack" style="rounded=1;whiteSpace=wrap;html=1;fontSize=11;" vertex="1" parent="1"><mxGeometry x="1060" y="20" width="280" height="28" as="geometry" /></mxCell><mxCell id="12" value="a.sr-only" style="rounded=1;whiteSpace=wrap;html=1;fontSize=11;" vertex="1" parent="1"><mxGeometry x="1320" y="20" width="280" height="28" as="geometry" /></mxCell><mxCell id="13" value="h1" style="rounded=1;whiteSpace=wrap;html=1;fontSize=11;" vertex="1" parent="1"><mxGeometry x="1320" y="54" width="280" height="28" as="geometry" /></mxCell><mxCell id="14" value="span.badge" style="rounded=1;whiteSpace=wrap;html=1;fontSize=11;" vertex="1" parent="1"><mxGeometry x="1580" y="20" width="280" height="28" as="geometry" /></mxCell><mxCell id="15" value="p#intro.deep" style="rounded=1;whiteSpace=wrap;html=1;fontSize=11;" vertex="1" parent="1"><mxGeometry x="1320" y="88" width="280" height="28" as="geometry" /></mxCell><mxCell id="16" value="strong" style="rounded=1;whiteSpace=wrap;html=1;fontSize=11;" vertex="1" parent="1"><mxGeometry x="1580" y="54" width="280" height="28" as="geometry" /></mxCell><mxCell id="17" value="nav#nav-principal" style="rounded=1;whiteSpace=wrap;html=1;fontSize=11;" vertex="1" parent="1"><mxGeometry x="1320" y="122" width="280" height="28" as="geometry" /></mxCell><mxCell id="18" value="ul.deep" style="rounded=1;whiteSpace=wrap;html=1;fontSize=11;" vertex="1" parent="1"><mxGeometry x="1580" y="88" width="280" height="28" as="geometry" /></mxCell><mxCell id="19" value="li" style="rounded=1;whiteSpace=wrap;html=1;fontSize=11;" vertex="1" parent="1"><mxGeometry x="1840" y="20" width="280" height="28" as="geometry" /></mxCell><mxCell id="20" value="a" style="rounded=1;whiteSpace=wrap;html=1;fontSize=11;" vertex="1" parent="1"><mxGeometry x="2100" y="20" width="280" height="28" as="geometry" /></mxCell><mxCell id="21" value="ul" style="rounded=1;whiteSpace=wrap;html=1;fontSize=11;" vertex="1" parent="1"><mxGeometry x="2100" y="54" width="280" height="28" as="geometry" /></mxCell><mxCell id="22" value="li" style="rounded=1;whiteSpace=wrap;html=1;fontSize=11;" vertex="1" parent="1"><mxGeometry x="2360" y="20" width="280" height="28" as="geometry" /></mxCell><mxCell id="23" value="a" style="rounded=1;whiteSpace=wrap;html=1;fontSize=11;" vertex="1" parent="1"><mxGeometry x="2620" y="20" width="280" height="28" as="geometry" /></mxCell><mxCell id="24" value="li" style="rounded=1;whiteSpace=wrap;html=1;fontSize=11;" vertex="1" parent="1"><mxGeometry x="2360" y="54" width="280" height="28" as="geometry" /></mxCell><mxCell id="25" value="a" style="rounded=1;whiteSpace=wrap;html=1;fontSize=11;" vertex="1" parent="1"><mxGeometry x="2620" y="54" width="280" height="28" as="geometry" /></mxCell><mxCell id="26" value="li" style="rounded=1;whiteSpace=wrap;html=1;fontSize=11;" vertex="1" parent="1"><mxGeometry x="2360" y="88" width="280" height="28" as="geometry" /></mxCell><mxCell id="27" value="a" style="rounded=1;whiteSpace=wrap;html=1;fontSize=11;" vertex="1" parent="1"><mxGeometry x="2620" y="88" width="280" height="28" as="geometry" /></mxCell><mxCell id="28" value="li" style="rounded=1;whiteSpace=wrap;html=1;fontSize=11;" vertex="1" parent="1"><mxGeometry x="1840" y="54" width="280" height="28" as="geometry" /></mxCell><mxCell id="29" value="a" style="rounded=1;whiteSpace=wrap;html=1;fontSize=11;" vertex="1" parent="1"><mxGeometry x="2100" y="88" width="280" height="28" as="geometry" /></mxCell><mxCell id="30" value="ul" style="rounded=1;whiteSpace=wrap;html=1;fontSize=11;" vertex="1" parent="1"><mxGeometry x="2100" y="122" width="280" height="28" as="geometry" /></mxCell><mxCell id="31" value="li" style="rounded=1;whiteSpace=wrap;html=1;fontSize=11;" vertex="1" parent="1"><mxGeometry x="2360" y="122" width="280" height="28" as="geometry" /></mxCell><mxCell id="32" value="a" style="rounded=1;whiteSpace=wrap;html=1;fontSize=11;" vertex="1" parent="1"><mxGeometry x="2620" y="122" width="280" height="28" as="geometry" /></mxCell><mxCell id="33" value="li" style="rounded=1;whiteSpace=wrap;html=1;fontSize=11;" vertex="1" parent="1"><mxGeometry x="2360" y="156" width="280" height="28" as="geometry" /></mxCell><mxCell id="34" value="a" style="rounded=1;whiteSpace=wrap;html=1;fontSize=11;" vertex="1" parent="1"><mxGeometry x="2620" y="156" width="280" height="28" as="geometry" /></mxCell><mxCell id="35" value="li" style="rounded=1;whiteSpace=wrap;html=1;fontSize=11;" vertex="1" parent="1"><mxGeometry x="2360" y="190" width="280" height="28" as="geometry" /></mxCell><mxCell id="36" value="a" style="rounded=1;whiteSpace=wrap;html=1;fontSize=11;" vertex="1" parent="1"><mxGeometry x="2620" y="190" width="280" height="28" as="geometry" /></mxCell><mxCell id="37" value="li" style="rounded=1;whiteSpace=wrap;html=1;fontSize=11;" vertex="1" parent="1"><mxGeometry x="1840" y="88" width="280" height="28" as="geometry" /></mxCell><mxCell id="38" value="a" style="rounded=1;whiteSpace=wrap;html=1;fontSize=11;" vertex="1" parent="1"><mxGeometry x="2100" y="156" width="280" height="28" as="geometry" /></mxCell><mxCell id="39" value="nav#migas" style="rounded=1;whiteSpace=wrap;html=1;fontSize=11;" vertex="1" parent="1"><mxGeometry x="1320" y="156" width="280" height="28" as="geometry" /></mxCell><mxCell id="40" value="ol.deep" style="rounded=1;whiteSpace=wrap;html=1;fontSize=11;" vertex="1" parent="1"><mxGeometry x="1580" y="122" width="280" height="28" as="geometry" /></mxCell><mxCell id="41" value="li" style="rounded=1;whiteSpace=wrap;html=1;fontSize=11;" vertex="1" parent="1"><mxGeometry x="1840" y="122" width="280" height="28" as="geometry" /></mxCell><mxCell id="42" value="a" style="rounded=1;whiteSpace=wrap;html=1;fontSize=11;" vertex="1" parent="1"><mxGeometry x="2100" y="190" width="280" height="28" as="geometry" /></mxCell><mxCell id="43" value="span" style="rounded=1;whiteSpace=wrap;html=1;fontSize=11;" vertex="1" parent="1"><mxGeometry x="2360" y="224" width="280" height="28" as="geometry" /></mxCell><mxCell id="44" value="meta" style="rounded=1;whiteSpace=wrap;html=1;fontSize=11;" vertex="1" parent="1"><mxGeometry x="2100" y="224" width="280" height="28" as="geometry" /></mxCell><mxCell id="45" value="li" style="rounded=1;whiteSpace=wrap;html=1;fontSize=11;" vertex="1" parent="1"><mxGeometry x="1840" y="156" width="280" height="28" as="geometry" /></mxCell><mxCell id="46" value="a" style="rounded=1;whiteSpace=wrap;html=1;fontSize=11;" vertex="1" parent="1"><mxGeometry x="2100" y="258" width="280" height="28" as="geometry" /></mxCell><mxCell id="47" value="span" style="rounded=1;whiteSpace=wrap;html=1;fontSize=11;" vertex="1" parent="1"><mxGeometry x="2360" y="258" width="280" height="28" as="geometry" /></mxCell><mxCell id="48" value="meta" style="rounded=1;whiteSpace=wrap;html=1;fontSize=11;" vertex="1" parent="1"><mxGeometry x="2100" y="292" width="280" height="28" as="geometry" /></mxCell><mxCell id="49" value="li" style="rounded=1;whiteSpace=wrap;html=1;fontSize=11;" vertex="1" parent="1"><mxGeometry x="1840" y="190" width="280" height="28" as="geometry" /></mxCell><mxCell id="50" value="span" style="rounded=1;whiteSpace=wrap;html=1;fontSize=11;" vertex="1" parent="1"><mxGeometry x="2100" y="326" width="280" height="28" as="geometry" /></mxCell><mxCell id="51" value="meta" style="rounded=1;whiteSpace=wrap;html=1;fontSize=11;" vertex="1" parent="1"><mxGeometry x="2100" y="360" width="280" height="28" as="geometry" /></mxCell><mxCell id="52" value="main#contenido" style="rounded=1;whiteSpace=wrap;html=1;fontSize=11;" vertex="1" parent="1"><mxGeometry x="800" y="190" width="280" height="28" as="geometry" /></mxCell><mxCell id="53" value="section#reportes" style="rounded=1;whiteSpace=wrap;html=1;fontSize=11;" vertex="1" parent="1"><mxGeometry x="1060" y="54" width="280" height="28" as="geometry" /></mxCell><mxCell id="54" value="h2#titulo-reportes" style="rounded=1;whiteSpace=wrap;html=1;fontSize=11;" vertex="1" parent="1"><mxGeometry x="1320" y="190" width="280" height="28" as="geometry" /></mxCell><mxCell id="55" value="article#reportes-ventas.deep" style="rounded=1;whiteSpace=wrap;html=1;fontSize=11;" vertex="1" parent="1"><mxGeometry x="1320" y="224" width="280" height="28" as="geometry" /></mxCell><mxCell id="56" value="header" style="rounded=1;whiteSpace=wrap;html=1;fontSize=11;" vertex="1" parent="1"><mxGeometry x="1580" y="156" width="280" height="28" as="geometry" /></mxCell><mxCell id="57" value="h3" style="rounded=1;whiteSpace=wrap;html=1;fontSize=11;" vertex="1" parent="1"><mxGeometry x="1840" y="224" width="280" height="28" as="geometry" /></mxCell><mxCell id="58" value="span.badge" style="rounded=1;whiteSpace=wrap;html=1;fontSize=11;" vertex="1" parent="1"><mxGeometry x="2100" y="394" width="280" height="28" as="geometry" /></mxCell><mxCell id="59" value="p" style="rounded=1;whiteSpace=wrap;html=1;fontSize=11;" vertex="1" parent="1"><mxGeometry x="1840" y="258" width="280" height="28" as="geometry" /></mxCell><mxCell id="60" value="div.grid" style="rounded=1;whiteSpace=wrap;html=1;fontSize=11;" vertex="1" parent="1"><mxGeometry x="1580" y="190" width="280" height="28" as="geometry" /></mxCell><mxCell id="61" value="section" style="rounded=1;whiteSpace=wrap;html=1;fontSize=11;" vertex="1" parent="1"><mxGeometry x="1840" y="292" width="280" height="28" as="geometry" /></mxCell><mxCell id="62" value="h4" style="rounded=1;whiteSpace=wrap;html=1;fontSize=11;" vertex="1" parent="1"><mxGeometry x="2100" y="428" width="280" height="28" as="geometry" /></mxCell><mxCell id="63" value="ul" style="rounded=1;whiteSpace=wrap;html=1;fontSize=11;" vertex="1" parent="1"><mxGeometry x="2100" y="462" width="280" height="28" as="geometry" /></mxCell><mxCell id="64" value="li" style="rounded=1;whiteSpace=wrap;html=1;fontSize=11;" vertex="1" parent="1"><mxGeometry x="2360" y="292" width="280" height="28" as="geometry" /></mxCell><mxCell id="65" value="ul" style="rounded=1;whiteSpace=wrap;html=1;fontSize=11;" vertex="1" parent="1"><mxGeometry x="2620" y="224" width="280" height="28" as="geometry" /></mxCell><mxCell id="66" value="li" style="rounded=1;whiteSpace=wrap;html=1;fontSize=11;" vertex="1" parent="1"><mxGeometry x="2880" y="20" width="280" height="28" as="geometry" /></mxCell><mxCell id="67" value="ul" style="rounded=1;whiteSpace=wrap;html=1;fontSize=11;" vertex="1" parent="1"><mxGeometry x="3140" y="20" width="280" height="28" as="geometry" /></mxCell><mxCell id="68" value="li" style="rounded=1;whiteSpace=wrap;html=1;fontSize=11;" vertex="1" parent="1"><mxGeometry x="3400" y="20" width="280" height="28" as="geometry" /></mxCell><mxCell id="69" value="ul" style="rounded=1;whiteSpace=wrap;html=1;fontSize=11;" vertex="1" parent="1"><mxGeometry x="3660" y="20" width="280" height="28" as="geometry" /></mxCell><mxCell id="70" value="li" style="rounded=1;whiteSpace=wrap;html=1;fontSize=11;" vertex="1" parent="1"><mxGeometry x="3920" y="20" width="280" height="28" as="geometry" /></mxCell><mxCell id="71" value="ul" style="rounded=1;whiteSpace=wrap;html=1;fontSize=11;" vertex="1" parent="1"><mxGeometry x="4180" y="20" width="280" height="28" as="geometry" /></mxCell><mxCell id="72" value="li" style="rounded=1;whiteSpace=wrap;html=1;fontSize=11;" vertex="1" parent="1"><mxGeometry x="4440" y="20" width="280" height="28" as="geometry" /></mxCell><mxCell id="73" value="ul" style="rounded=1;whiteSpace=wrap;html=1;fontSize=11;" vertex="1" parent="1"><mxGeometry x="4700" y="20" width="280" height="28" as="geometry" /></mxCell><mxCell id="74" value="li" style="rounded=1;whiteSpace=wrap;html=1;fontSize=11;" vertex="1" parent="1"><mxGeometry x="4960" y="20" width="280" height="28" as="geometry" /></mxCell><mxCell id="75" value="li" style="rounded=1;whiteSpace=wrap;html=1;fontSize=11;" vertex="1" parent="1"><mxGeometry x="4960" y="54" width="280" height="28" as="geometry" /></mxCell><mxCell id="76" value="li" style="rounded=1;whiteSpace=wrap;html=1;fontSize=11;" vertex="1" parent="1"><mxGeometry x="4960" y="88" width="280" height="28" as="geometry" /></mxCell><mxCell id="77" value="li" style="rounded=1;whiteSpace=wrap;html=1;fontSize=11;" vertex="1" parent="1"><mxGeometry x="4440" y="54" width="280" height="28" as="geometry" /></mxCell><mxCell id="78" value="li" style="rounded=1;whiteSpace=wrap;html=1;fontSize=11;" vertex="1" parent="1"><mxGeometry x="3920" y="54" width="280" height="28" as="geometry" /></mxCell><mxCell id="79" value="li" style="rounded=1;whiteSpace=wrap;html=1;fontSize=11;" vertex="1" parent="1"><mxGeometry x="3400" y="54" width="280" height="28" as="geometry" /></mxCell><mxCell id="80" value="li" style="rounded=1;whiteSpace=wrap;html=1;fontSize=11;" vertex="1" parent="1"><mxGeometry x="2880" y="54" width="280" height="28" as="geometry" /></mxCell><mxCell id="81" value="li" style="rounded=1;whiteSpace=wrap;html=1;fontSize=11;" vertex="1" parent="1"><mxGeometry x="2360" y="326" width="280" height="28" as="geometry" /></mxCell><mxCell id="82" value="ul" style="rounded=1;whiteSpace=wrap;html=1;fontSize=11;" vertex="1" parent="1"><mxGeometry x="2620" y="258" width="280" height="28" as="geometry" /></mxCell><mxCell id="83" value="li" style="rounded=1;whiteSpace=wrap;html=1;fontSize=11;" vertex="1" parent="1"><mxGeometry x="2880" y="88" width="280" height="28" as="geometry" /></mxCell><mxCell id="84" value="li" style="rounded=1;whiteSpace=wrap;html=1;fontSize=11;" vertex="1" parent="1"><mxGeometry x="2880" y="122" width="280" height="28" as="geometry" /></mxCell><mxCell id="85" value="li" style="rounded=1;whiteSpace=wrap;html=1;fontSize=11;" vertex="1" parent="1"><mxGeometry x="2360" y="360" width="280" height="28" as="geometry" /></mxCell><mxCell id="86" value="section" style="rounded=1;whiteSpace=wrap;html=1;fontSize=11;" vertex="1" parent="1"><mxGeometry x="1840" y="326" width="280" height="28" as="geometry" /></mxCell><mxCell id="87" value="h4" style="rounded=1;whiteSpace=wrap;html=1;fontSize=11;" vertex="1" parent="1"><mxGeometry x="2100" y="496" width="280" height="28" as="geometry" /></mxCell><mxCell id="88" value="ol" style="rounded=1;whiteSpace=wrap;html=1;fontSize=11;" vertex="1" parent="1"><mxGeometry x="2100" y="530" width="280" height="28" as="geometry" /></mxCell><mxCell id="89" value="li" style="rounded=1;whiteSpace=wrap;html=1;fontSize=11;" vertex="1" parent="1"><mxGeometry x="2360" y="394" width="280" height="28" as="geometry" /></mxCell><mxCell id="90" value="ol" style="rounded=1;whiteSpace=wrap;html=1;fontSize=11;" vertex="1" parent="1"><mxGeometry x="2620" y="292" width="280" height="28" as="geometry" /></mxCell><mxCell id="91" value="li" style="rounded=1;whiteSpace=wrap;html=1;fontSize=11;" vertex="1" parent="1"><mxGeometry x="2880" y="156" width="280" height="28" as="geometry" /></mxCell><mxCell id="92" value="li" style="rounded=1;whiteSpace=wrap;html=1;fontSize=11;" vertex="1" parent="1"><mxGeometry x="2880" y="190" width="280" height="28" as="geometry" /></mxCell><mxCell id="93" value="ol" style="rounded=1;whiteSpace=wrap;html=1;fontSize=11;" vertex="1" parent="1"><mxGeometry x="3140" y="54" width="280" height="28" as="geometry" /></mxCell><mxCell id="94" value="li" style="rounded=1;whiteSpace=wrap;html=1;fontSize=11;" vertex="1" parent="1"><mxGeometry x="3400" y="88" width="280" height="28" as="geometry" /></mxCell><mxCell id="95" value="li" style="rounded=1;whiteSpace=wrap;html=1;fontSize=11;" vertex="1" parent="1"><mxGeometry x="3400" y="122" width="280" height="28" as="geometry" /></mxCell><mxCell id="96" value="ol" style="rounded=1;whiteSpace=wrap;html=1;fontSize=11;" vertex="1" parent="1"><mxGeometry x="3660" y="54" width="280" height="28" as="geometry" /></mxCell><mxCell id="97" value="li" style="rounded=1;whiteSpace=wrap;html=1;fontSize=11;" vertex="1" parent="1"><mxGeometry x="3920" y="88" width="280" height="28" as="geometry" /></mxCell><mxCell id="98" value="li" style="rounded=1;whiteSpace=wrap;html=1;fontSize=11;" vertex="1" parent="1"><mxGeometry x="3920" y="122" width="280" height="28" as="geometry" /></mxCell><mxCell id="99" value="li" style="rounded=1;whiteSpace=wrap;html=1;fontSize=11;" vertex="1" parent="1"><mxGeometry x="2360" y="428" width="280" height="28" as="geometry" /></mxCell><mxCell id="100" value="li" style="rounded=1;whiteSpace=wrap;html=1;fontSize=11;" vertex="1" parent="1"><mxGeometry x="2360" y="462" width="280" height="28" as="geometry" /></mxCell><mxCell id="101" value="section.deep" style="rounded=1;whiteSpace=wrap;html=1;fontSize=11;" vertex="1" parent="1"><mxGeometry x="1580" y="224" width="280" height="28" as="geometry" /></mxCell><mxCell id="102" value="h4" style="rounded=1;whiteSpace=wrap;html=1;fontSize=11;" vertex="1" parent="1"><mxGeometry x="1840" y="360" width="280" height="28" as="geometry" /></mxCell><mxCell id="103" value="table#tabla-ventas" style="rounded=1;whiteSpace=wrap;html=1;fontSize=11;" vertex="1" parent="1"><mxGeometry x="1840" y="394" width="280" height="28" as="geometry" /></mxCell><mxCell id="104" value="caption" style="rounded=1;whiteSpace=wrap;html=1;fontSize=11;" vertex="1" parent="1"><mxGeometry x="2100" y="564" width="280" height="28" as="geometry" /></mxCell><mxCell id="105" value="thead" style="rounded=1;whiteSpace=wrap;html=1;fontSize=11;" vertex="1" parent="1"><mxGeometry x="2100" y="598" width="280" height="28" as="geometry" /></mxCell><mxCell id="106" value="tr" style="rounded=1;whiteSpace=wrap;html=1;fontSize=11;" vertex="1" parent="1"><mxGeometry x="2360" y="496" width="280" height="28" as="geometry" /></mxCell><mxCell id="107" value="th" style="rounded=1;whiteSpace=wrap;html=1;fontSize=11;" vertex="1" parent="1"><mxGeometry x="2620" y="326" width="280" height="28" as="geometry" /></mxCell><mxCell id="108" value="th" style="rounded=1;whiteSpace=wrap;html=1;fontSize=11;" vertex="1" parent="1"><mxGeometry x="2620" y="360" width="280" height="28" as="geometry" /></mxCell><mxCell id="109" value="th" style="rounded=1;whiteSpace=wrap;html=1;fontSize=11;" vertex="1" parent="1"><mxGeometry x="2620" y="394" width="280" height="28" as="geometry" /></mxCell><mxCell id="110" value="th" style="rounded=1;whiteSpace=wrap;html=1;fontSize=11;" vertex="1" parent="1"><mxGeometry x="2620" y="428" width="280" height="28" as="geometry" /></mxCell><mxCell id="111" value="th" style="rounded=1;whiteSpace=wrap;html=1;fontSize=11;" vertex="1" parent="1"><mxGeometry x="2620" y="462" width="280" height="28" as="geometry" /></mxCell><mxCell id="112" value="tbody" style="rounded=1;whiteSpace=wrap;html=1;fontSize=11;" vertex="1" parent="1"><mxGeometry x="2100" y="632" width="280" height="28" as="geometry" /></mxCell><mxCell id="113" value="tr" style="rounded=1;whiteSpace=wrap;html=1;fontSize=11;" vertex="1" parent="1"><mxGeometry x="2360" y="530" width="280" height="28" as="geometry" /></mxCell><mxCell id="114" value="td" style="rounded=1;whiteSpace=wrap;html=1;fontSize=11;" vertex="1" parent="1"><mxGeometry x="2620" y="496" width="280" height="28" as="geometry" /></mxCell><mxCell id="115" value="td" style="rounded=1;whiteSpace=wrap;html=1;fontSize=11;" vertex="1" parent="1"><mxGeometry x="2620" y="530" width="280" height="28" as="geometry" /></mxCell><mxCell id="116" value="td" style="rounded=1;whiteSpace=wrap;html=1;fontSize=11;" vertex="1" parent="1"><mxGeometry x="2620" y="564" width="280" height="28" as="geometry" /></mxCell><mxCell id="117" value="td" style="rounded=1;whiteSpace=wrap;html=1;fontSize=11;" vertex="1" parent="1"><mxGeometry x="2620" y="598" width="280" height="28" as="geometry" /></mxCell><mxCell id="118" value="td" style="rounded=1;whiteSpace=wrap;html=1;fontSize=11;" vertex="1" parent="1"><mxGeometry x="2620" y="632" width="280" height="28" as="geometry" /></mxCell><mxCell id="119" value="tr" style="rounded=1;whiteSpace=wrap;html=1;fontSize=11;" vertex="1" parent="1"><mxGeometry x="2360" y="564" width="280" height="28" as="geometry" /></mxCell><mxCell id="120" value="td" style="rounded=1;whiteSpace=wrap;html=1;fontSize=11;" vertex="1" parent="1"><mxGeometry x="2620" y="666" width="280" height="28" as="geometry" /></mxCell><mxCell id="121" value="td" style="rounded=1;whiteSpace=wrap;html=1;fontSize=11;" vertex="1" parent="1"><mxGeometry x="2620" y="700" width="280" height="28" as="geometry" /></mxCell><mxCell id="122" value="td" style="rounded=1;whiteSpace=wrap;html=1;fontSize=11;" vertex="1" parent="1"><mxGeometry x="2620" y="734" width="280" height="28" as="geometry" /></mxCell><mxCell id="123" value="td" style="rounded=1;whiteSpace=wrap;html=1;fontSize=11;" vertex="1" parent="1"><mxGeometry x="2620" y="768" width="280" height="28" as="geometry" /></mxCell><mxCell id="124" value="tr" style="rounded=1;whiteSpace=wrap;html=1;fontSize=11;" vertex="1" parent="1"><mxGeometry x="2360" y="598" width="280" height="28" as="geometry" /></mxCell><mxCell id="125" value="td" style="rounded=1;whiteSpace=wrap;html=1;fontSize=11;" vertex="1" parent="1"><mxGeometry x="2620" y="802" width="280" height="28" as="geometry" /></mxCell><mxCell id="126" value="td" style="rounded=1;whiteSpace=wrap;html=1;fontSize=11;" vertex="1" parent="1"><mxGeometry x="2620" y="836" width="280" height="28" as="geometry" /></mxCell><mxCell id="127" value="td" style="rounded=1;whiteSpace=wrap;html=1;fontSize=11;" vertex="1" parent="1"><mxGeometry x="2620" y="870" width="280" height="28" as="geometry" /></mxCell><mxCell id="128" value="td" style="rounded=1;whiteSpace=wrap;html=1;fontSize=11;" vertex="1" parent="1"><mxGeometry x="2620" y="904" width="280" height="28" as="geometry" /></mxCell><mxCell id="129" value="tr" style="rounded=1;whiteSpace=wrap;html=1;fontSize=11;" vertex="1" parent="1"><mxGeometry x="2360" y="632" width="280" height="28" as="geometry" /></mxCell><mxCell id="130" value="td" style="rounded=1;whiteSpace=wrap;html=1;fontSize=11;" vertex="1" parent="1"><mxGeometry x="2620" y="938" width="280" height="28" as="geometry" /></mxCell><mxCell id="131" value="td" style="rounded=1;whiteSpace=wrap;html=1;fontSize=11;" vertex="1" parent="1"><mxGeometry x="2620" y="972" width="280" height="28" as="geometry" /></mxCell><mxCell id="132" value="td" style="rounded=1;whiteSpace=wrap;html=1;fontSize=11;" vertex="1" parent="1"><mxGeometry x="2620" y="1006" width="280" height="28" as="geometry" /></mxCell><mxCell id="133" value="td" style="rounded=1;whiteSpace=wrap;html=1;fontSize=11;" vertex="1" parent="1"><mxGeometry x="2620" y="1040" width="280" height="28" as="geometry" /></mxCell><mxCell id="134" value="tfoot" style="rounded=1;whiteSpace=wrap;html=1;fontSize=11;" vertex="1" parent="1"><mxGeometry x="2100" y="666" width="280" height="28" as="geometry" /></mxCell><mxCell id="135" value="tr" style="rounded=1;whiteSpace=wrap;html=1;fontSize=11;" vertex="1" parent="1"><mxGeometry x="2360" y="666" width="280" height="28" as="geometry" /></mxCell><mxCell id="136" value="th" style="rounded=1;whiteSpace=wrap;html=1;fontSize=11;" vertex="1" parent="1"><mxGeometry x="2620" y="1074" width="280" height="28" as="geometry" /></mxCell><mxCell id="137" value="td" style="rounded=1;whiteSpace=wrap;html=1;fontSize=11;" vertex="1" parent="1"><mxGeometry x="2620" y="1108" width="280" height="28" as="geometry" /></mxCell><mxCell id="138" value="td" style="rounded=1;whiteSpace=wrap;html=1;fontSize=11;" vertex="1" parent="1"><mxGeometry x="2620" y="1142" width="280" height="28" as="geometry" /></mxCell><mxCell id="139" value="td" style="rounded=1;whiteSpace=wrap;html=1;fontSize=11;" vertex="1" parent="1"><mxGeometry x="2620" y="1176" width="280" height="28" as="geometry" /></mxCell><mxCell id="140" value="aside.deep" style="rounded=1;whiteSpace=wrap;html=1;fontSize=11;" vertex="1" parent="1"><mxGeometry x="1580" y="258" width="280" height="28" as="geometry" /></mxCell><mxCell id="141" value="h4" style="rounded=1;whiteSpace=wrap;html=1;fontSize=11;" vertex="1" parent="1"><mxGeometry x="1840" y="428" width="280" height="28" as="geometry" /></mxCell><mxCell id="142" value="details" style="rounded=1;whiteSpace=wrap;html=1;fontSize=11;" vertex="1" parent="1"><mxGeometry x="1840" y="462" width="280" height="28" as="geometry" /></mxCell><mxCell id="143" value="summary" style="rounded=1;whiteSpace=wrap;html=1;fontSize=11;" vertex="1" parent="1"><mxGeometry x="2100" y="700" width="280" height="28" as="geometry" /></mxCell><mxCell id="144" value="p" style="rounded=1;whiteSpace=wrap;html=1;fontSize=11;" vertex="1" parent="1"><mxGeometry x="2100" y="734" width="280" height="28" as="geometry" /></mxCell><mxCell id="145" value="em" style="rounded=1;whiteSpace=wrap;html=1;fontSize=11;" vertex="1" parent="1"><mxGeometry x="2360" y="700" width="280" height="28" as="geometry" /></mxCell><mxCell id="146" value="details" style="rounded=1;whiteSpace=wrap;html=1;fontSize=11;" vertex="1" parent="1"><mxGeometry x="2100" y="768" width="280" height="28" as="geometry" /></mxCell><mxCell id="147" value="summary" style="rounded=1;whiteSpace=wrap;html=1;fontSize=11;" vertex="1" parent="1"><mxGeometry x="2360" y="734" width="280" height="28" as="geometry" /></mxCell><mxCell id="148" value="ul" style="rounded=1;whiteSpace=wrap;html=1;fontSize=11;" vertex="1" parent="1"><mxGeometry x="2360" y="768" width="280" height="28" as="geometry" /></mxCell><mxCell id="149" value="li" style="rounded=1;whiteSpace=wrap;html=1;fontSize=11;" vertex="1" parent="1"><mxGeometry x="2620" y="1210" width="280" height="28" as="geometry" /></mxCell><mxCell id="150" value="li" style="rounded=1;whiteSpace=wrap;html=1;fontSize=11;" vertex="1" parent="1"><mxGeometry x="2620" y="1244" width="280" height="28" as="geometry" /></mxCell><mxCell id="151" value="li" style="rounded=1;whiteSpace=wrap;html=1;fontSize=11;" vertex="1" parent="1"><mxGeometry x="2620" y="1278" width="280" height="28" as="geometry" /></mxCell><mxCell id="152" value="details" style="rounded=1;whiteSpace=wrap;html=1;fontSize=11;" vertex="1" parent="1"><mxGeometry x="1840" y="496" width="280" height="28" as="geometry" /></mxCell><mxCell id="153" value="summary" style="rounded=1;whiteSpace=wrap;html=1;fontSize=11;" vertex="1" parent="1"><mxGeometry x="2100" y="802" width="280" height="28" as="geometry" /></mxCell><mxCell id="154" value="dl" style="rounded=1;whiteSpace=wrap;html=1;fontSize=11;" vertex="1" parent="1"><mxGeometry x="2100" y="836" width="280" height="28" as="geometry" /></mxCell><mxCell id="155" value="dt" style="rounded=1;whiteSpace=wrap;html=1;fontSize=11;" vertex="1" parent="1"><mxGeometry x="2360" y="802" width="280" height="28" as="geometry" /></mxCell><mxCell id="156" value="dd" style="rounded=1;whiteSpace=wrap;html=1;fontSize=11;" vertex="1" parent="1"><mxGeometry x="2360" y="836" width="280" height="28" as="geometry" /></mxCell><mxCell id="157" value="dt" style="rounded=1;whiteSpace=wrap;html=1;fontSize=11;" vertex="1" parent="1"><mxGeometry x="2360" y="870" width="280" height="28" as="geometry" /></mxCell><mxCell id="158" value="dd" style="rounded=1;whiteSpace=wrap;html=1;fontSize=11;" vertex="1" parent="1"><mxGeometry x="2360" y="904" width="280" height="28" as="geometry" /></mxCell><mxCell id="159" value="dt" style="rounded=1;whiteSpace=wrap;html=1;fontSize=11;" vertex="1" parent="1"><mxGeometry x="2360" y="938" width="280" height="28" as="geometry" /></mxCell><mxCell id="160" value="dd" style="rounded=1;whiteSpace=wrap;html=1;fontSize=11;" vertex="1" parent="1"><mxGeometry x="2360" y="972" width="280" height="28" as="geometry" /></mxCell><mxCell id="161" value="footer" style="rounded=1;whiteSpace=wrap;html=1;fontSize=11;" vertex="1" parent="1"><mxGeometry x="1580" y="292" width="280" height="28" as="geometry" /></mxCell><mxCell id="162" value="p" style="rounded=1;whiteSpace=wrap;html=1;fontSize=11;" vertex="1" parent="1"><mxGeometry x="1840" y="530" width="280" height="28" as="geometry" /></mxCell><mxCell id="163" value="time" style="rounded=1;whiteSpace=wrap;html=1;fontSize=11;" vertex="1" parent="1"><mxGeometry x="2100" y="870" width="280" height="28" as="geometry" /></mxCell><mxCell id="164" value="article#reportes-marketing.deep" style="rounded=1;whiteSpace=wrap;html=1;fontSize=11;" vertex="1" parent="1"><mxGeometry x="1320" y="258" width="280" height="28" as="geometry" /></mxCell><mxCell id="165" value="header" style="rounded=1;whiteSpace=wrap;html=1;fontSize=11;" vertex="1" parent="1"><mxGeometry x="1580" y="326" width="280" height="28" as="geometry" /></mxCell><mxCell id="166" value="h3" style="rounded=1;whiteSpace=wrap;html=1;fontSize=11;" vertex="1" parent="1"><mxGeometry x="1840" y="564" width="280" height="28" as="geometry" /></mxCell><mxCell id="167" value="p" style="rounded=1;whiteSpace=wrap;html=1;fontSize=11;" vertex="1" parent="1"><mxGeometry x="1840" y="598" width="280" height="28" as="geometry" /></mxCell><mxCell id="168" value="section.deep" style="rounded=1;whiteSpace=wrap;html=1;fontSize=11;" vertex="1" parent="1"><mxGeometry x="1580" y="360" width="280" height="28" as="geometry" /></mxCell><mxCell id="169" value="h4" style="rounded=1;whiteSpace=wrap;html=1;fontSize=11;" vertex="1" parent="1"><mxGeometry x="1840" y="632" width="280" height="28" as="geometry" /></mxCell><mxCell id="170" value="ol" style="rounded=1;whiteSpace=wrap;html=1;fontSize=11;" vertex="1" parent="1"><mxGeometry x="1840" y="666" width="280" height="28" as="geometry" /></mxCell><mxCell id="171" value="li" style="rounded=1;whiteSpace=wrap;html=1;fontSize=11;" vertex="1" parent="1"><mxGeometry x="2100" y="904" width="280" height="28" as="geometry" /></mxCell><mxCell id="172" value="ul" style="rounded=1;whiteSpace=wrap;html=1;fontSize=11;" vertex="1" parent="1"><mxGeometry x="2360" y="1006" width="280" height="28" as="geometry" /></mxCell><mxCell id="173" value="li" style="rounded=1;whiteSpace=wrap;html=1;fontSize=11;" vertex="1" parent="1"><mxGeometry x="2620" y="1312" width="280" height="28" as="geometry" /></mxCell><mxCell id="174" value="li" style="rounded=1;whiteSpace=wrap;html=1;fontSize=11;" vertex="1" parent="1"><mxGeometry x="2620" y="1346" width="280" height="28" as="geometry" /></mxCell><mxCell id="175" value="ul" style="rounded=1;whiteSpace=wrap;html=1;fontSize=11;" vertex="1" parent="1"><mxGeometry x="2880" y="224" width="280" height="28" as="geometry" /></mxCell><mxCell id="176" value="li" style="rounded=1;whiteSpace=wrap;html=1;fontSize=11;" vertex="1" parent="1"><mxGeometry x="3140" y="88" width="280" height="28" as="geometry" /></mxCell><mxCell id="177" value="li" style="rounded=1;whiteSpace=wrap;html=1;fontSize=11;" vertex="1" parent="1"><mxGeometry x="3140" y="122" width="280" height="28" as="geometry" /></mxCell><mxCell id="178" value="li" style="rounded=1;whiteSpace=wrap;html=1;fontSize=11;" vertex="1" parent="1"><mxGeometry x="3140" y="156" width="280" height="28" as="geometry" /></mxCell><mxCell id="179" value="ul" style="rounded=1;whiteSpace=wrap;html=1;fontSize=11;" vertex="1" parent="1"><mxGeometry x="3400" y="156" width="280" height="28" as="geometry" /></mxCell><mxCell id="180" value="li" style="rounded=1;whiteSpace=wrap;html=1;fontSize=11;" vertex="1" parent="1"><mxGeometry x="3660" y="88" width="280" height="28" as="geometry" /></mxCell><mxCell id="181" value="li" style="rounded=1;whiteSpace=wrap;html=1;fontSize=11;" vertex="1" parent="1"><mxGeometry x="3660" y="122" width="280" height="28" as="geometry" /></mxCell><mxCell id="182" value="ul" style="rounded=1;whiteSpace=wrap;html=1;fontSize=11;" vertex="1" parent="1"><mxGeometry x="3920" y="156" width="280" height="28" as="geometry" /></mxCell><mxCell id="183" value="li" style="rounded=1;whiteSpace=wrap;html=1;fontSize=11;" vertex="1" parent="1"><mxGeometry x="4180" y="54" width="280" height="28" as="geometry" /></mxCell><mxCell id="184" value="li" style="rounded=1;whiteSpace=wrap;html=1;fontSize=11;" vertex="1" parent="1"><mxGeometry x="4180" y="88" width="280" height="28" as="geometry" /></mxCell><mxCell id="185" value="li" style="rounded=1;whiteSpace=wrap;html=1;fontSize=11;" vertex="1" parent="1"><mxGeometry x="2100" y="938" width="280" height="28" as="geometry" /></mxCell><mxCell id="186" value="li" style="rounded=1;whiteSpace=wrap;html=1;fontSize=11;" vertex="1" parent="1"><mxGeometry x="2100" y="972" width="280" height="28" as="geometry" /></mxCell><mxCell id="187" value="li" style="rounded=1;whiteSpace=wrap;html=1;fontSize=11;" vertex="1" parent="1"><mxGeometry x="2100" y="1006" width="280" height="28" as="geometry" /></mxCell><mxCell id="188" value="section.deep" style="rounded=1;whiteSpace=wrap;html=1;fontSize=11;" vertex="1" parent="1"><mxGeometry x="1580" y="394" width="280" height="28" as="geometry" /></mxCell><mxCell id="189" value="h4" style="rounded=1;whiteSpace=wrap;html=1;fontSize=11;" vertex="1" parent="1"><mxGeometry x="1840" y="700" width="280" height="28" as="geometry" /></mxCell><mxCell id="190" value="article" style="rounded=1;whiteSpace=wrap;html=1;fontSize=11;" vertex="1" parent="1"><mxGeometry x="1840" y="734" width="280" height="28" as="geometry" /></mxCell><mxCell id="191" value="h5" style="rounded=1;whiteSpace=wrap;html=1;fontSize=11;" vertex="1" parent="1"><mxGeometry x="2100" y="1040" width="280" height="28" as="geometry" /></mxCell><mxCell id="192" value="figure" style="rounded=1;whiteSpace=wrap;html=1;fontSize=11;" vertex="1" parent="1"><mxGeometry x="2100" y="1074" width="280" height="28" as="geometry" /></mxCell><mxCell id="193" value="video" style="rounded=1;whiteSpace=wrap;html=1;fontSize=11;" vertex="1" parent="1"><mxGeometry x="2360" y="1040" width="280" height="28" as="geometry" /></mxCell><mxCell id="194" value="source" style="rounded=1;whiteSpace=wrap;html=1;fontSize=11;" vertex="1" parent="1"><mxGeometry x="2620" y="1380" width="280" height="28" as="geometry" /></mxCell><mxCell id="195" value="figcaption" style="rounded=1;whiteSpace=wrap;html=1;fontSize=11;" vertex="1" parent="1"><mxGeometry x="2360" y="1074" width="280" height="28" as="geometry" /></mxCell><mxCell id="196" value="article" style="rounded=1;whiteSpace=wrap;html=1;fontSize=11;" vertex="1" parent="1"><mxGeometry x="1840" y="768" width="280" height="28" as="geometry" /></mxCell><mxCell id="197" value="h5" style="rounded=1;whiteSpace=wrap;html=1;fontSize=11;" vertex="1" parent="1"><mxGeometry x="2100" y="1108" width="280" height="28" as="geometry" /></mxCell><mxCell id="198" value="figure" style="rounded=1;whiteSpace=wrap;html=1;fontSize=11;" vertex="1" parent="1"><mxGeometry x="2100" y="1142" width="280" height="28" as="geometry" /></mxCell><mxCell id="199" value="img" style="rounded=1;whiteSpace=wrap;html=1;fontSize=11;" vertex="1" parent="1"><mxGeometry x="2360" y="1108" width="280" height="28" as="geometry" /></mxCell><mxCell id="200" value="figcaption" style="rounded=1;whiteSpace=wrap;html=1;fontSize=11;" vertex="1" parent="1"><mxGeometry x="2360" y="1142" width="280" height="28" as="geometry" /></mxCell><mxCell id="201" value="section.deep" style="rounded=1;whiteSpace=wrap;html=1;fontSize=11;" vertex="1" parent="1"><mxGeometry x="1580" y="428" width="280" height="28" as="geometry" /></mxCell><mxCell id="202" value="h4" style="rounded=1;whiteSpace=wrap;html=1;fontSize=11;" vertex="1" parent="1"><mxGeometry x="1840" y="802" width="280" height="28" as="geometry" /></mxCell><mxCell id="203" value="form#form-encuesta" style="rounded=1;whiteSpace=wrap;html=1;fontSize=11;" vertex="1" parent="1"><mxGeometry x="1840" y="836" width="280" height="28" as="geometry" /></mxCell><mxCell id="204" value="fieldset" style="rounded=1;whiteSpace=wrap;html=1;fontSize=11;" vertex="1" parent="1"><mxGeometry x="2100" y="1176" width="280" height="28" as="geometry" /></mxCell><mxCell id="205" value="legend" style="rounded=1;whiteSpace=wrap;html=1;fontSize=11;" vertex="1" parent="1"><mxGeometry x="2360" y="1176" width="280" height="28" as="geometry" /></mxCell><mxCell id="206" value="div.stack" style="rounded=1;whiteSpace=wrap;html=1;fontSize=11;" vertex="1" parent="1"><mxGeometry x="2360" y="1210" width="280" height="28" as="geometry" /></mxCell><mxCell id="207" value="label" style="rounded=1;whiteSpace=wrap;html=1;fontSize=11;" vertex="1" parent="1"><mxGeometry x="2620" y="1414" width="280" height="28" as="geometry" /></mxCell><mxCell id="208" value="input" style="rounded=1;whiteSpace=wrap;html=1;fontSize=11;" vertex="1" parent="1"><mxGeometry x="2880" y="258" width="280" height="28" as="geometry" /></mxCell><mxCell id="209" value="label" style="rounded=1;whiteSpace=wrap;html=1;fontSize=11;" vertex="1" parent="1"><mxGeometry x="2620" y="1448" width="280" height="28" as="geometry" /></mxCell><mxCell id="210" value="input" style="rounded=1;whiteSpace=wrap;html=1;fontSize=11;" vertex="1" parent="1"><mxGeometry x="2880" y="292" width="280" height="28" as="geometry" /></mxCell><mxCell id="211" value="label" style="rounded=1;whiteSpace=wrap;html=1;fontSize=11;" vertex="1" parent="1"><mxGeometry x="2620" y="1482" width="280" height="28" as="geometry" /></mxCell><mxCell id="212" value="select" style="rounded=1;whiteSpace=wrap;html=1;fontSize=11;" vertex="1" parent="1"><mxGeometry x="2880" y="326" width="280" height="28" as="geometry" /></mxCell><mxCell id="213" value="optgroup" style="rounded=1;whiteSpace=wrap;html=1;fontSize=11;" vertex="1" parent="1"><mxGeometry x="3140" y="190" width="280" height="28" as="geometry" /></mxCell><mxCell id="214" value="option" style="rounded=1;whiteSpace=wrap;html=1;fontSize=11;" vertex="1" parent="1"><mxGeometry x="3400" y="190" width="280" height="28" as="geometry" /></mxCell><mxCell id="215" value="option" style="rounded=1;whiteSpace=wrap;html=1;fontSize=11;" vertex="1" parent="1"><mxGeometry x="3400" y="224" width="280" height="28" as="geometry" /></mxCell><mxCell id="216" value="option" style="rounded=1;whiteSpace=wrap;html=1;fontSize=11;" vertex="1" parent="1"><mxGeometry x="3400" y="258" width="280" height="28" as="geometry" /></mxCell><mxCell id="217" value="optgroup" style="rounded=1;whiteSpace=wrap;html=1;fontSize=11;" vertex="1" parent="1"><mxGeometry x="3140" y="224" width="280" height="28" as="geometry" /></mxCell><mxCell id="218" value="option" style="rounded=1;whiteSpace=wrap;html=1;fontSize=11;" vertex="1" parent="1"><mxGeometry x="3400" y="292" width="280" height="28" as="geometry" /></mxCell><mxCell id="219" value="option" style="rounded=1;whiteSpace=wrap;html=1;fontSize=11;" vertex="1" parent="1"><mxGeometry x="3400" y="326" width="280" height="28" as="geometry" /></mxCell><mxCell id="220" value="fieldset" style="rounded=1;whiteSpace=wrap;html=1;fontSize=11;" vertex="1" parent="1"><mxGeometry x="2100" y="1210" width="280" height="28" as="geometry" /></mxCell><mxCell id="221" value="legend" style="rounded=1;whiteSpace=wrap;html=1;fontSize=11;" vertex="1" parent="1"><mxGeometry x="2360" y="1244" width="280" height="28" as="geometry" /></mxCell><mxCell id="222" value="div.stack" style="rounded=1;whiteSpace=wrap;html=1;fontSize=11;" vertex="1" parent="1"><mxGeometry x="2360" y="1278" width="280" height="28" as="geometry" /></mxCell><mxCell id="223" value="label" style="rounded=1;whiteSpace=wrap;html=1;fontSize=11;" vertex="1" parent="1"><mxGeometry x="2620" y="1516" width="280" height="28" as="geometry" /></mxCell><mxCell id="224" value="input" style="rounded=1;whiteSpace=wrap;html=1;fontSize=11;" vertex="1" parent="1"><mxGeometry x="2880" y="360" width="280" height="28" as="geometry" /></mxCell><mxCell id="225" value="label" style="rounded=1;whiteSpace=wrap;html=1;fontSize=11;" vertex="1" parent="1"><mxGeometry x="2620" y="1550" width="280" height="28" as="geometry" /></mxCell><mxCell id="226" value="input" style="rounded=1;whiteSpace=wrap;html=1;fontSize=11;" vertex="1" parent="1"><mxGeometry x="2880" y="394" width="280" height="28" as="geometry" /></mxCell><mxCell id="227" value="label" style="rounded=1;whiteSpace=wrap;html=1;fontSize=11;" vertex="1" parent="1"><mxGeometry x="2620" y="1584" width="280" height="28" as="geometry" /></mxCell><mxCell id="228" value="input" style="rounded=1;whiteSpace=wrap;html=1;fontSize=11;" vertex="1" parent="1"><mxGeometry x="2880" y="428" width="280" height="28" as="geometry" /></mxCell><mxCell id="229" value="label" style="rounded=1;whiteSpace=wrap;html=1;fontSize=11;" vertex="1" parent="1"><mxGeometry x="2620" y="1618" width="280" height="28" as="geometry" /></mxCell><mxCell id="230" value="textarea" style="rounded=1;whiteSpace=wrap;html=1;fontSize=11;" vertex="1" parent="1"><mxGeometry x="2880" y="462" width="280" height="28" as="geometry" /></mxCell><mxCell id="231" value="label" style="rounded=1;whiteSpace=wrap;html=1;fontSize=11;" vertex="1" parent="1"><mxGeometry x="2620" y="1652" width="280" height="28" as="geometry" /></mxCell><mxCell id="232" value="input" style="rounded=1;whiteSpace=wrap;html=1;fontSize=11;" vertex="1" parent="1"><mxGeometry x="2880" y="496" width="280" height="28" as="geometry" /></mxCell><mxCell id="233" value="div.stack" style="rounded=1;whiteSpace=wrap;html=1;fontSize=11;" vertex="1" parent="1"><mxGeometry x="2100" y="1244" width="280" height="28" as="geometry" /></mxCell><mxCell id="234" value="button" style="rounded=1;whiteSpace=wrap;html=1;fontSize=11;" vertex="1" parent="1"><mxGeometry x="2360" y="1312" width="280" height="28" as="geometry" /></mxCell><mxCell id="235" value="button" style="rounded=1;whiteSpace=wrap;html=1;fontSize=11;" vertex="1" parent="1"><mxGeometry x="2360" y="1346" width="280" height="28" as="geometry" /></mxCell><mxCell id="236" value="footer" style="rounded=1;whiteSpace=wrap;html=1;fontSize=11;" vertex="1" parent="1"><mxGeometry x="1580" y="462" width="280" height="28" as="geometry" /></mxCell><mxCell id="237" value="p" style="rounded=1;whiteSpace=wrap;html=1;fontSize=11;" vertex="1" parent="1"><mxGeometry x="1840" y="870" width="280" height="28" as="geometry" /></mxCell><mxCell id="238" value="a" style="rounded=1;whiteSpace=wrap;html=1;fontSize=11;" vertex="1" parent="1"><mxGeometry x="2100" y="1278" width="280" height="28" as="geometry" /></mxCell><mxCell id="239" value="article#reportes-finanzas.deep" style="rounded=1;whiteSpace=wrap;html=1;fontSize=11;" vertex="1" parent="1"><mxGeometry x="1320" y="292" width="280" height="28" as="geometry" /></mxCell><mxCell id="240" value="header" style="rounded=1;whiteSpace=wrap;html=1;fontSize=11;" vertex="1" parent="1"><mxGeometry x="1580" y="496" width="280" height="28" as="geometry" /></mxCell><mxCell id="241" value="h3" style="rounded=1;whiteSpace=wrap;html=1;fontSize=11;" vertex="1" parent="1"><mxGeometry x="1840" y="904" width="280" height="28" as="geometry" /></mxCell><mxCell id="242" value="p" style="rounded=1;whiteSpace=wrap;html=1;fontSize=11;" vertex="1" parent="1"><mxGeometry x="1840" y="938" width="280" height="28" as="geometry" /></mxCell><mxCell id="243" value="section.deep" style="rounded=1;whiteSpace=wrap;html=1;fontSize=11;" vertex="1" parent="1"><mxGeometry x="1580" y="530" width="280" height="28" as="geometry" /></mxCell><mxCell id="244" value="h4" style="rounded=1;whiteSpace=wrap;html=1;fontSize=11;" vertex="1" parent="1"><mxGeometry x="1840" y="972" width="280" height="28" as="geometry" /></mxCell><mxCell id="245" value="ul" style="rounded=1;whiteSpace=wrap;html=1;fontSize=11;" vertex="1" parent="1"><mxGeometry x="1840" y="1006" width="280" height="28" as="geometry" /></mxCell><mxCell id="246" value="li" style="rounded=1;whiteSpace=wrap;html=1;fontSize=11;" vertex="1" parent="1"><mxGeometry x="2100" y="1312" width="280" height="28" as="geometry" /></mxCell><mxCell id="247" value="ul" style="rounded=1;whiteSpace=wrap;html=1;fontSize=11;" vertex="1" parent="1"><mxGeometry x="2360" y="1380" width="280" height="28" as="geometry" /></mxCell><mxCell id="248" value="li" style="rounded=1;whiteSpace=wrap;html=1;fontSize=11;" vertex="1" parent="1"><mxGeometry x="2620" y="1686" width="280" height="28" as="geometry" /></mxCell><mxCell id="249" value="li" style="rounded=1;whiteSpace=wrap;html=1;fontSize=11;" vertex="1" parent="1"><mxGeometry x="2620" y="1720" width="280" height="28" as="geometry" /></mxCell><mxCell id="250" value="ul" style="rounded=1;whiteSpace=wrap;html=1;fontSize=11;" vertex="1" parent="1"><mxGeometry x="2880" y="530" width="280" height="28" as="geometry" /></mxCell><mxCell id="251" value="li" style="rounded=1;whiteSpace=wrap;html=1;fontSize=11;" vertex="1" parent="1"><mxGeometry x="3140" y="258" width="280" height="28" as="geometry" /></mxCell><mxCell id="252" value="li" style="rounded=1;whiteSpace=wrap;html=1;fontSize=11;" vertex="1" parent="1"><mxGeometry x="3140" y="292" width="280" height="28" as="geometry" /></mxCell><mxCell id="253" value="ul" style="rounded=1;whiteSpace=wrap;html=1;fontSize=11;" vertex="1" parent="1"><mxGeometry x="3400" y="360" width="280" height="28" as="geometry" /></mxCell><mxCell id="254" value="li" style="rounded=1;whiteSpace=wrap;html=1;fontSize=11;" vertex="1" parent="1"><mxGeometry x="3660" y="156" width="280" height="28" as="geometry" /></mxCell><mxCell id="255" value="li" style="rounded=1;whiteSpace=wrap;html=1;fontSize=11;" vertex="1" parent="1"><mxGeometry x="3660" y="190" width="280" height="28" as="geometry" /></mxCell><mxCell id="256" value="li" style="rounded=1;whiteSpace=wrap;html=1;fontSize=11;" vertex="1" parent="1"><mxGeometry x="3660" y="224" width="280" height="28" as="geometry" /></mxCell><mxCell id="257" value="li" style="rounded=1;whiteSpace=wrap;html=1;fontSize=11;" vertex="1" parent="1"><mxGeometry x="2620" y="1754" width="280" height="28" as="geometry" /></mxCell><mxCell id="258" value="li" style="rounded=1;whiteSpace=wrap;html=1;fontSize=11;" vertex="1" parent="1"><mxGeometry x="2620" y="1788" width="280" height="28" as="geometry" /></mxCell><mxCell id="259" value="li" style="rounded=1;whiteSpace=wrap;html=1;fontSize=11;" vertex="1" parent="1"><mxGeometry x="2100" y="1346" width="280" height="28" as="geometry" /></mxCell><mxCell id="260" value="li" style="rounded=1;whiteSpace=wrap;html=1;fontSize=11;" vertex="1" parent="1"><mxGeometry x="2100" y="1380" width="280" height="28" as="geometry" /></mxCell><mxCell id="261" value="section.deep.grid" style="rounded=1;whiteSpace=wrap;html=1;fontSize=11;" vertex="1" parent="1"><mxGeometry x="1580" y="564" width="280" height="28" as="geometry" /></mxCell><mxCell id="262" value="article" style="rounded=1;whiteSpace=wrap;html=1;fontSize=11;" vertex="1" parent="1"><mxGeometry x="1840" y="1040" width="280" height="28" as="geometry" /></mxCell><mxCell id="263" value="h5" style="rounded=1;whiteSpace=wrap;html=1;fontSize=11;" vertex="1" parent="1"><mxGeometry x="2100" y="1414" width="280" height="28" as="geometry" /></mxCell><mxCell id="264" value="ul" style="rounded=1;whiteSpace=wrap;html=1;fontSize=11;" vertex="1" parent="1"><mxGeometry x="2100" y="1448" width="280" height="28" as="geometry" /></mxCell><mxCell id="265" value="li" style="rounded=1;whiteSpace=wrap;html=1;fontSize=11;" vertex="1" parent="1"><mxGeometry x="2360" y="1414" width="280" height="28" as="geometry" /></mxCell><mxCell id="266" value="li" style="rounded=1;whiteSpace=wrap;html=1;fontSize=11;" vertex="1" parent="1"><mxGeometry x="2360" y="1448" width="280" height="28" as="geometry" /></mxCell><mxCell id="267" value="li" style="rounded=1;whiteSpace=wrap;html=1;fontSize=11;" vertex="1" parent="1"><mxGeometry x="2360" y="1482" width="280" height="28" as="geometry" /></mxCell><mxCell id="268" value="li" style="rounded=1;whiteSpace=wrap;html=1;fontSize=11;" vertex="1" parent="1"><mxGeometry x="2360" y="1516" width="280" height="28" as="geometry" /></mxCell><mxCell id="269" value="article" style="rounded=1;whiteSpace=wrap;html=1;fontSize=11;" vertex="1" parent="1"><mxGeometry x="1840" y="1074" width="280" height="28" as="geometry" /></mxCell><mxCell id="270" value="h5" style="rounded=1;whiteSpace=wrap;html=1;fontSize=11;" vertex="1" parent="1"><mxGeometry x="2100" y="1482" width="280" height="28" as="geometry" /></mxCell><mxCell id="271" value="details" style="rounded=1;whiteSpace=wrap;html=1;fontSize=11;" vertex="1" parent="1"><mxGeometry x="2100" y="1516" width="280" height="28" as="geometry" /></mxCell><mxCell id="272" value="summary" style="rounded=1;whiteSpace=wrap;html=1;fontSize=11;" vertex="1" parent="1"><mxGeometry x="2360" y="1550" width="280" height="28" as="geometry" /></mxCell><mxCell id="273" value="p.deep" style="rounded=1;whiteSpace=wrap;html=1;fontSize=11;" vertex="1" parent="1"><mxGeometry x="2360" y="1584" width="280" height="28" as="geometry" /></mxCell><mxCell id="274" value="details" style="rounded=1;whiteSpace=wrap;html=1;fontSize=11;" vertex="1" parent="1"><mxGeometry x="2360" y="1618" width="280" height="28" as="geometry" /></mxCell><mxCell id="275" value="summary" style="rounded=1;whiteSpace=wrap;html=1;fontSize=11;" vertex="1" parent="1"><mxGeometry x="2620" y="1822" width="280" height="28" as="geometry" /></mxCell><mxCell id="276" value="p.deep" style="rounded=1;whiteSpace=wrap;html=1;fontSize=11;" vertex="1" parent="1"><mxGeometry x="2620" y="1856" width="280" height="28" as="geometry" /></mxCell><mxCell id="277" value="strong" style="rounded=1;whiteSpace=wrap;html=1;fontSize=11;" vertex="1" parent="1"><mxGeometry x="2880" y="564" width="280" height="28" as="geometry" /></mxCell><mxCell id="278" value="em" style="rounded=1;whiteSpace=wrap;html=1;fontSize=11;" vertex="1" parent="1"><mxGeometry x="2880" y="598" width="280" height="28" as="geometry" /></mxCell><mxCell id="279" value="code" style="rounded=1;whiteSpace=wrap;html=1;fontSize=11;" vertex="1" parent="1"><mxGeometry x="2880" y="632" width="280" height="28" as="geometry" /></mxCell><mxCell id="280" value="template#tpl-fila" style="rounded=1;whiteSpace=wrap;html=1;fontSize=11;" vertex="1" parent="1"><mxGeometry x="1580" y="598" width="280" height="28" as="geometry" /></mxCell><mxCell id="281" value="tr" style="rounded=1;whiteSpace=wrap;html=1;fontSize=11;" vertex="1" parent="1"><mxGeometry x="1840" y="1108" width="280" height="28" as="geometry" /></mxCell><mxCell id="282" value="td" style="rounded=1;whiteSpace=wrap;html=1;fontSize=11;" vertex="1" parent="1"><mxGeometry x="2100" y="1550" width="280" height="28" as="geometry" /></mxCell><mxCell id="283" value="td" style="rounded=1;whiteSpace=wrap;html=1;fontSize=11;" vertex="1" parent="1"><mxGeometry x="2100" y="1584" width="280" height="28" as="geometry" /></mxCell><mxCell id="284" value="footer" style="rounded=1;whiteSpace=wrap;html=1;fontSize=11;" vertex="1" parent="1"><mxGeometry x="1580" y="632" width="280" height="28" as="geometry" /></mxCell><mxCell id="285" value="p" style="rounded=1;whiteSpace=wrap;html=1;fontSize=11;" vertex="1" parent="1"><mxGeometry x="1840" y="1142" width="280" height="28" as="geometry" /></mxCell><mxCell id="286" value="time" style="rounded=1;whiteSpace=wrap;html=1;fontSize=11;" vertex="1" parent="1"><mxGeometry x="2100" y="1618" width="280" height="28" as="geometry" /></mxCell><mxCell id="287" value="section#equipo" style="rounded=1;whiteSpace=wrap;html=1;fontSize=11;" vertex="1" parent="1"><mxGeometry x="1060" y="88" width="280" height="28" as="geometry" /></mxCell><mxCell id="288" value="h2#titulo-equipo" style="rounded=1;whiteSpace=wrap;html=1;fontSize=11;" vertex="1" parent="1"><mxGeometry x="1320" y="326" width="280" height="28" as="geometry" /></mxCell><mxCell id="289" value="article#equipo-desarrollo.deep" style="rounded=1;whiteSpace=wrap;html=1;fontSize=11;" vertex="1" parent="1"><mxGeometry x="1320" y="360" width="280" height="28" as="geometry" /></mxCell><mxCell id="290" value="header" style="rounded=1;whiteSpace=wrap;html=1;fontSize=11;" vertex="1" parent="1"><mxGeometry x="1580" y="666" width="280" height="28" as="geometry" /></mxCell><mxCell id="291" value="h3" style="rounded=1;whiteSpace=wrap;html=1;fontSize=11;" vertex="1" parent="1"><mxGeometry x="1840" y="1176" width="280" height="28" as="geometry" /></mxCell><mxCell id="292" value="ul" style="rounded=1;whiteSpace=wrap;html=1;fontSize=11;" vertex="1" parent="1"><mxGeometry x="1580" y="700" width="280" height="28" as="geometry" /></mxCell><mxCell id="293" value="li" style="rounded=1;whiteSpace=wrap;html=1;fontSize=11;" vertex="1" parent="1"><mxGeometry x="1840" y="1210" width="280" height="28" as="geometry" /></mxCell><mxCell id="294" value="ul" style="rounded=1;whiteSpace=wrap;html=1;fontSize=11;" vertex="1" parent="1"><mxGeometry x="2100" y="1652" width="280" height="28" as="geometry" /></mxCell><mxCell id="295" value="li" style="rounded=1;whiteSpace=wrap;html=1;fontSize=11;" vertex="1" parent="1"><mxGeometry x="2360" y="1652" width="280" height="28" as="geometry" /></mxCell><mxCell id="296" value="ul" style="rounded=1;whiteSpace=wrap;html=1;fontSize=11;" vertex="1" parent="1"><mxGeometry x="2620" y="1890" width="280" height="28" as="geometry" /></mxCell><mxCell id="297" value="li" style="rounded=1;whiteSpace=wrap;html=1;fontSize=11;" vertex="1" parent="1"><mxGeometry x="2880" y="666" width="280" height="28" as="geometry" /></mxCell><mxCell id="298" value="ul" style="rounded=1;whiteSpace=wrap;html=1;fontSize=11;" vertex="1" parent="1"><mxGeometry x="3140" y="326" width="280" height="28" as="geometry" /></mxCell><mxCell id="299" value="li" style="rounded=1;whiteSpace=wrap;html=1;fontSize=11;" vertex="1" parent="1"><mxGeometry x="3400" y="394" width="280" height="28" as="geometry" /></mxCell><mxCell id="300" value="li" style="rounded=1;whiteSpace=wrap;html=1;fontSize=11;" vertex="1" parent="1"><mxGeometry x="3400" y="428" width="280" height="28" as="geometry" /></mxCell><mxCell id="301" value="ul" style="rounded=1;whiteSpace=wrap;html=1;fontSize=11;" vertex="1" parent="1"><mxGeometry x="3660" y="258" width="280" height="28" as="geometry" /></mxCell><mxCell id="302" value="li" style="rounded=1;whiteSpace=wrap;html=1;fontSize=11;" vertex="1" parent="1"><mxGeometry x="3920" y="190" width="280" height="28" as="geometry" /></mxCell><mxCell id="303" value="li" style="rounded=1;whiteSpace=wrap;html=1;fontSize=11;" vertex="1" parent="1"><mxGeometry x="3920" y="224" width="280" height="28" as="geometry" /></mxCell><mxCell id="304" value="li" style="rounded=1;whiteSpace=wrap;html=1;fontSize=11;" vertex="1" parent="1"><mxGeometry x="2880" y="700" width="280" height="28" as="geometry" /></mxCell><mxCell id="305" value="ul" style="rounded=1;whiteSpace=wrap;html=1;fontSize=11;" vertex="1" parent="1"><mxGeometry x="3140" y="360" width="280" height="28" as="geometry" /></mxCell><mxCell id="306" value="li" style="rounded=1;whiteSpace=wrap;html=1;fontSize=11;" vertex="1" parent="1"><mxGeometry x="3400" y="462" width="280" height="28" as="geometry" /></mxCell><mxCell id="307" value="li" style="rounded=1;whiteSpace=wrap;html=1;fontSize=11;" vertex="1" parent="1"><mxGeometry x="3400" y="496" width="280" height="28" as="geometry" /></mxCell><mxCell id="308" value="li" style="rounded=1;whiteSpace=wrap;html=1;fontSize=11;" vertex="1" parent="1"><mxGeometry x="2360" y="1686" width="280" height="28" as="geometry" /></mxCell><mxCell id="309" value="ul" style="rounded=1;whiteSpace=wrap;html=1;fontSize=11;" vertex="1" parent="1"><mxGeometry x="2620" y="1924" width="280" height="28" as="geometry" /></mxCell><mxCell id="310" value="li" style="rounded=1;whiteSpace=wrap;html=1;fontSize=11;" vertex="1" parent="1"><mxGeometry x="2880" y="734" width="280" height="28" as="geometry" /></mxCell><mxCell id="311" value="li" style="rounded=1;whiteSpace=wrap;html=1;fontSize=11;" vertex="1" parent="1"><mxGeometry x="2880" y="768" width="280" height="28" as="geometry" /></mxCell><mxCell id="312" value="li" style="rounded=1;whiteSpace=wrap;html=1;fontSize=11;" vertex="1" parent="1"><mxGeometry x="1840" y="1244" width="280" height="28" as="geometry" /></mxCell><mxCell id="313" value="ul" style="rounded=1;whiteSpace=wrap;html=1;fontSize=11;" vertex="1" parent="1"><mxGeometry x="2100" y="1686" width="280" height="28" as="geometry" /></mxCell><mxCell id="314" value="li" style="rounded=1;whiteSpace=wrap;html=1;fontSize=11;" vertex="1" parent="1"><mxGeometry x="2360" y="1720" width="280" height="28" as="geometry" /></mxCell><mxCell id="315" value="li" style="rounded=1;whiteSpace=wrap;html=1;fontSize=11;" vertex="1" parent="1"><mxGeometry x="2360" y="1754" width="280" height="28" as="geometry" /></mxCell><mxCell id="316" value="ul" style="rounded=1;whiteSpace=wrap;html=1;fontSize=11;" vertex="1" parent="1"><mxGeometry x="2620" y="1958" width="280" height="28" as="geometry" /></mxCell><mxCell id="317" value="li" style="rounded=1;whiteSpace=wrap;html=1;fontSize=11;" vertex="1" parent="1"><mxGeometry x="2880" y="802" width="280" height="28" as="geometry" /></mxCell><mxCell id="318" value="li" style="rounded=1;whiteSpace=wrap;html=1;fontSize=11;" vertex="1" parent="1"><mxGeometry x="2880" y="836" width="280" height="28" as="geometry" /></mxCell><mxCell id="319" value="footer" style="rounded=1;whiteSpace=wrap;html=1;fontSize=11;" vertex="1" parent="1"><mxGeometry x="1580" y="734" width="280" height="28" as="geometry" /></mxCell><mxCell id="320" value="small" style="rounded=1;whiteSpace=wrap;html=1;fontSize=11;" vertex="1" parent="1"><mxGeometry x="1840" y="1278" width="280" height="28" as="geometry" /></mxCell><mxCell id="321" value="article#equipo-diseno.deep" style="rounded=1;whiteSpace=wrap;html=1;fontSize=11;" vertex="1" parent="1"><mxGeometry x="1320" y="394" width="280" height="28" as="geometry" /></mxCell><mxCell id="322" value="header" style="rounded=1;whiteSpace=wrap;html=1;fontSize=11;" vertex="1" parent="1"><mxGeometry x="1580" y="768" width="280" height="28" as="geometry" /></mxCell><mxCell id="323" value="h3" style="rounded=1;whiteSpace=wrap;html=1;fontSize=11;" vertex="1" parent="1"><mxGeometry x="1840" y="1312" width="280" height="28" as="geometry" /></mxCell><mxCell id="324" value="p" style="rounded=1;whiteSpace=wrap;html=1;fontSize=11;" vertex="1" parent="1"><mxGeometry x="1580" y="802" width="280" height="28" as="geometry" /></mxCell><mxCell id="325" value="ol" style="rounded=1;whiteSpace=wrap;html=1;fontSize=11;" vertex="1" parent="1"><mxGeometry x="1580" y="836" width="280" height="28" as="geometry" /></mxCell><mxCell id="326" value="li" style="rounded=1;whiteSpace=wrap;html=1;fontSize=11;" vertex="1" parent="1"><mxGeometry x="1840" y="1346" width="280" height="28" as="geometry" /></mxCell><mxCell id="327" value="ol" style="rounded=1;whiteSpace=wrap;html=1;fontSize=11;" vertex="1" parent="1"><mxGeometry x="2100" y="1720" width="280" height="28" as="geometry" /></mxCell><mxCell id="328" value="li" style="rounded=1;whiteSpace=wrap;html=1;fontSize=11;" vertex="1" parent="1"><mxGeometry x="2360" y="1788" width="280" height="28" as="geometry" /></mxCell><mxCell id="329" value="li" style="rounded=1;whiteSpace=wrap;html=1;fontSize=11;" vertex="1" parent="1"><mxGeometry x="2360" y="1822" width="280" height="28" as="geometry" /></mxCell><mxCell id="330" value="li" style="rounded=1;whiteSpace=wrap;html=1;fontSize=11;" vertex="1" parent="1"><mxGeometry x="2360" y="1856" width="280" height="28" as="geometry" /></mxCell><mxCell id="331" value="ol" style="rounded=1;whiteSpace=wrap;html=1;fontSize=11;" vertex="1" parent="1"><mxGeometry x="2620" y="1992" width="280" height="28" as="geometry" /></mxCell><mxCell id="332" value="li" style="rounded=1;whiteSpace=wrap;html=1;fontSize=11;" vertex="1" parent="1"><mxGeometry x="2880" y="870" width="280" height="28" as="geometry" /></mxCell><mxCell id="333" value="li" style="rounded=1;whiteSpace=wrap;html=1;fontSize=11;" vertex="1" parent="1"><mxGeometry x="2880" y="904" width="280" height="28" as="geometry" /></mxCell><mxCell id="334" value="li" style="rounded=1;whiteSpace=wrap;html=1;fontSize=11;" vertex="1" parent="1"><mxGeometry x="2880" y="938" width="280" height="28" as="geometry" /></mxCell><mxCell id="335" value="li" style="rounded=1;whiteSpace=wrap;html=1;fontSize=11;" vertex="1" parent="1"><mxGeometry x="1840" y="1380" width="280" height="28" as="geometry" /></mxCell><mxCell id="336" value="li" style="rounded=1;whiteSpace=wrap;html=1;fontSize=11;" vertex="1" parent="1"><mxGeometry x="1840" y="1414" width="280" height="28" as="geometry" /></mxCell><mxCell id="337" value="article#equipo-datos.deep" style="rounded=1;whiteSpace=wrap;html=1;fontSize=11;" vertex="1" parent="1"><mxGeometry x="1320" y="428" width="280" height="28" as="geometry" /></mxCell><mxCell id="338" value="header" style="rounded=1;whiteSpace=wrap;html=1;fontSize=11;" vertex="1" parent="1"><mxGeometry x="1580" y="870" width="280" height="28" as="geometry" /></mxCell><mxCell id="339" value="h3" style="rounded=1;whiteSpace=wrap;html=1;fontSize=11;" vertex="1" parent="1"><mxGeometry x="1840" y="1448" width="280" height="28" as="geometry" /></mxCell><mxCell id="340" value="aside.deep" style="rounded=1;whiteSpace=wrap;html=1;fontSize=11;" vertex="1" parent="1"><mxGeometry x="1580" y="904" width="280" height="28" as="geometry" /></mxCell><mxCell id="341" value="h4" style="rounded=1;whiteSpace=wrap;html=1;fontSize=11;" vertex="1" parent="1"><mxGeometry x="1840" y="1482" width="280" height="28" as="geometry" /></mxCell><mxCell id="342" value="ul" style="rounded=1;whiteSpace=wrap;html=1;fontSize=11;" vertex="1" parent="1"><mxGeometry x="1840" y="1516" width="280" height="28" as="geometry" /></mxCell><mxCell id="343" value="li" style="rounded=1;whiteSpace=wrap;html=1;fontSize=11;" vertex="1" parent="1"><mxGeometry x="2100" y="1754" width="280" height="28" as="geometry" /></mxCell><mxCell id="344" value="ul" style="rounded=1;whiteSpace=wrap;html=1;fontSize=11;" vertex="1" parent="1"><mxGeometry x="2360" y="1890" width="280" height="28" as="geometry" /></mxCell><mxCell id="345" value="li" style="rounded=1;whiteSpace=wrap;html=1;fontSize=11;" vertex="1" parent="1"><mxGeometry x="2620" y="2026" width="280" height="28" as="geometry" /></mxCell><mxCell id="346" value="li" style="rounded=1;whiteSpace=wrap;html=1;fontSize=11;" vertex="1" parent="1"><mxGeometry x="2620" y="2060" width="280" height="28" as="geometry" /></mxCell><mxCell id="347" value="ul" style="rounded=1;whiteSpace=wrap;html=1;fontSize=11;" vertex="1" parent="1"><mxGeometry x="2880" y="972" width="280" height="28" as="geometry" /></mxCell><mxCell id="348" value="li" style="rounded=1;whiteSpace=wrap;html=1;fontSize=11;" vertex="1" parent="1"><mxGeometry x="3140" y="394" width="280" height="28" as="geometry" /></mxCell><mxCell id="349" value="li" style="rounded=1;whiteSpace=wrap;html=1;fontSize=11;" vertex="1" parent="1"><mxGeometry x="3140" y="428" width="280" height="28" as="geometry" /></mxCell><mxCell id="350" value="li" style="rounded=1;whiteSpace=wrap;html=1;fontSize=11;" vertex="1" parent="1"><mxGeometry x="2100" y="1788" width="280" height="28" as="geometry" /></mxCell><mxCell id="351" value="ul" style="rounded=1;whiteSpace=wrap;html=1;fontSize=11;" vertex="1" parent="1"><mxGeometry x="2360" y="1924" width="280" height="28" as="geometry" /></mxCell><mxCell id="352" value="li" style="rounded=1;whiteSpace=wrap;html=1;fontSize=11;" vertex="1" parent="1"><mxGeometry x="2620" y="2094" width="280" height="28" as="geometry" /></mxCell><mxCell id="353" value="li" style="rounded=1;whiteSpace=wrap;html=1;fontSize=11;" vertex="1" parent="1"><mxGeometry x="2620" y="2128" width="280" height="28" as="geometry" /></mxCell><mxCell id="354" value="section.deep" style="rounded=1;whiteSpace=wrap;html=1;fontSize=11;" vertex="1" parent="1"><mxGeometry x="1580" y="938" width="280" height="28" as="geometry" /></mxCell><mxCell id="355" value="h4" style="rounded=1;whiteSpace=wrap;html=1;fontSize=11;" vertex="1" parent="1"><mxGeometry x="1840" y="1550" width="280" height="28" as="geometry" /></mxCell><mxCell id="356" value="dl" style="rounded=1;whiteSpace=wrap;html=1;fontSize=11;" vertex="1" parent="1"><mxGeometry x="1840" y="1584" width="280" height="28" as="geometry" /></mxCell><mxCell id="357" value="dt" style="rounded=1;whiteSpace=wrap;html=1;fontSize=11;" vertex="1" parent="1"><mxGeometry x="2100" y="1822" width="280" height="28" as="geometry" /></mxCell><mxCell id="358" value="dd" style="rounded=1;whiteSpace=wrap;html=1;fontSize=11;" vertex="1" parent="1"><mxGeometry x="2100" y="1856" width="280" height="28" as="geometry" /></mxCell><mxCell id="359" value="dt" style="rounded=1;whiteSpace=wrap;html=1;fontSize=11;" vertex="1" parent="1"><mxGeometry x="2100" y="1890" width="280" height="28" as="geometry" /></mxCell><mxCell id="360" value="dd" style="rounded=1;whiteSpace=wrap;html=1;fontSize=11;" vertex="1" parent="1"><mxGeometry x="2100" y="1924" width="280" height="28" as="geometry" /></mxCell><mxCell id="361" value="section#ayuda" style="rounded=1;whiteSpace=wrap;html=1;fontSize=11;" vertex="1" parent="1"><mxGeometry x="1060" y="122" width="280" height="28" as="geometry" /></mxCell><mxCell id="362" value="h2#titulo-ayuda" style="rounded=1;whiteSpace=wrap;html=1;fontSize=11;" vertex="1" parent="1"><mxGeometry x="1320" y="462" width="280" height="28" as="geometry" /></mxCell><mxCell id="363" value="details" style="rounded=1;whiteSpace=wrap;html=1;fontSize=11;" vertex="1" parent="1"><mxGeometry x="1320" y="496" width="280" height="28" as="geometry" /></mxCell><mxCell id="364" value="summary" style="rounded=1;whiteSpace=wrap;html=1;fontSize=11;" vertex="1" parent="1"><mxGeometry x="1580" y="972" width="280" height="28" as="geometry" /></mxCell><mxCell id="365" value="ul.deep" style="rounded=1;whiteSpace=wrap;html=1;fontSize=11;" vertex="1" parent="1"><mxGeometry x="1580" y="1006" width="280" height="28" as="geometry" /></mxCell><mxCell id="366" value="li" style="rounded=1;whiteSpace=wrap;html=1;fontSize=11;" vertex="1" parent="1"><mxGeometry x="1840" y="1618" width="280" height="28" as="geometry" /></mxCell><mxCell id="367" value="ul" style="rounded=1;whiteSpace=wrap;html=1;fontSize=11;" vertex="1" parent="1"><mxGeometry x="2100" y="1958" width="280" height="28" as="geometry" /></mxCell><mxCell id="368" value="li" style="rounded=1;whiteSpace=wrap;html=1;fontSize=11;" vertex="1" parent="1"><mxGeometry x="2360" y="1958" width="280" height="28" as="geometry" /></mxCell><mxCell id="369" value="strong" style="rounded=1;whiteSpace=wrap;html=1;fontSize=11;" vertex="1" parent="1"><mxGeometry x="2620" y="2162" width="280" height="28" as="geometry" /></mxCell><mxCell id="370" value="em" style="rounded=1;whiteSpace=wrap;html=1;fontSize=11;" vertex="1" parent="1"><mxGeometry x="2620" y="2196" width="280" height="28" as="geometry" /></mxCell><mxCell id="371" value="li" style="rounded=1;whiteSpace=wrap;html=1;fontSize=11;" vertex="1" parent="1"><mxGeometry x="1840" y="1652" width="280" height="28" as="geometry" /></mxCell><mxCell id="372" value="ul" style="rounded=1;whiteSpace=wrap;html=1;fontSize=11;" vertex="1" parent="1"><mxGeometry x="2100" y="1992" width="280" height="28" as="geometry" /></mxCell><mxCell id="373" value="li" style="rounded=1;whiteSpace=wrap;html=1;fontSize=11;" vertex="1" parent="1"><mxGeometry x="2360" y="1992" width="280" height="28" as="geometry" /></mxCell><mxCell id="374" value="a" style="rounded=1;whiteSpace=wrap;html=1;fontSize=11;" vertex="1" parent="1"><mxGeometry x="2620" y="2230" width="280" height="28" as="geometry" /></mxCell><mxCell id="375" value="aside.deep" style="rounded=1;whiteSpace=wrap;html=1;fontSize=11;" vertex="1" parent="1"><mxGeometry x="1320" y="530" width="280" height="28" as="geometry" /></mxCell><mxCell id="376" value="h3" style="rounded=1;whiteSpace=wrap;html=1;fontSize=11;" vertex="1" parent="1"><mxGeometry x="1580" y="1040" width="280" height="28" as="geometry" /></mxCell><mxCell id="377" value="ul" style="rounded=1;whiteSpace=wrap;html=1;fontSize=11;" vertex="1" parent="1"><mxGeometry x="1580" y="1074" width="280" height="28" as="geometry" /></mxCell><mxCell id="378" value="li" style="rounded=1;whiteSpace=wrap;html=1;fontSize=11;" vertex="1" parent="1"><mxGeometry x="1840" y="1686" width="280" height="28" as="geometry" /></mxCell><mxCell id="379" value="a" style="rounded=1;whiteSpace=wrap;html=1;fontSize=11;" vertex="1" parent="1"><mxGeometry x="2100" y="2026" width="280" height="28" as="geometry" /></mxCell><mxCell id="380" value="li" style="rounded=1;whiteSpace=wrap;html=1;fontSize=11;" vertex="1" parent="1"><mxGeometry x="1840" y="1720" width="280" height="28" as="geometry" /></mxCell><mxCell id="381" value="a" style="rounded=1;whiteSpace=wrap;html=1;fontSize=11;" vertex="1" parent="1"><mxGeometry x="2100" y="2060" width="280" height="28" as="geometry" /></mxCell><mxCell id="382" value="footer#site-footer" style="rounded=1;whiteSpace=wrap;html=1;fontSize=11;" vertex="1" parent="1"><mxGeometry x="800" y="224" width="280" height="28" as="geometry" /></mxCell><mxCell id="383" value="p" style="rounded=1;whiteSpace=wrap;html=1;fontSize=11;" vertex="1" parent="1"><mxGeometry x="1060" y="156" width="280" height="28" as="geometry" /></mxCell><mxCell id="384" value="span" style="rounded=1;whiteSpace=wrap;html=1;fontSize=11;" vertex="1" parent="1"><mxGeometry x="1320" y="564" width="280" height="28" as="geometry" /></mxCell><mxCell id="385" value="time" style="rounded=1;whiteSpace=wrap;html=1;fontSize=11;" vertex="1" parent="1"><mxGeometry x="1320" y="598" width="280" height="28" as="geometry" /></mxCell><mxCell id="386" value="address" style="rounded=1;whiteSpace=wrap;html=1;fontSize=11;" vertex="1" parent="1"><mxGeometry x="1060" y="190" width="280" height="28" as="geometry" /></mxCell><mxCell id="387" value="p" style="rounded=1;whiteSpace=wrap;html=1;fontSize=11;" vertex="1" parent="1"><mxGeometry x="1320" y="632" width="280" height="28" as="geometry" /></mxCell><mxCell id="388" value="p" style="rounded=1;whiteSpace=wrap;html=1;fontSize=11;" vertex="1" parent="1"><mxGeometry x="1320" y="666" width="280" height="28" as="geometry" /></mxCell><mxCell id="389" value="a" style="rounded=1;whiteSpace=wrap;html=1;fontSize=11;" vertex="1" parent="1"><mxGeometry x="1580" y="1108" width="280" height="28" as="geometry" /></mxCell><mxCell id="390" value="section#extra" style="rounded=1;whiteSpace=wrap;html=1;fontSize=11;" vertex="1" parent="1"><mxGeometry x="800" y="258" width="280" height="28" as="geometry" /></mxCell><mxCell id="391" value="ul" style="rounded=1;whiteSpace=wrap;html=1;fontSize=11;" vertex="1" parent="1"><mxGeometry x="1060" y="224" width="280" height="28" as="geometry" /></mxCell><mxCell id="392" value="li" style="rounded=1;whiteSpace=wrap;html=1;fontSize=11;" vertex="1" parent="1"><mxGeometry x="1320" y="700" width="280" height="28" as="geometry" /></mxCell><mxCell id="393" value="span" style="rounded=1;whiteSpace=wrap;html=1;fontSize=11;" vertex="1" parent="1"><mxGeometry x="1580" y="1142" width="280" height="28" as="geometry" /></mxCell><mxCell id="394" value="li" style="rounded=1;whiteSpace=wrap;html=1;fontSize=11;" vertex="1" parent="1"><mxGeometry x="1320" y="734" width="280" height="28" as="geometry" /></mxCell><mxCell id="395" value="span" style="rounded=1;whiteSpace=wrap;html=1;fontSize=11;" vertex="1" parent="1"><mxGeometry x="1580" y="1176" width="280" height="28" as="geometry" /></mxCell><mxCell id="396" value="li" style="rounded=1;whiteSpace=wrap;html=1;fontSize=11;" vertex="1" parent="1"><mxGeometry x="1320" y="768" width="280" height="28" as="geometry" /></mxCell><mxCell id="397" value="span" style="rounded=1;whiteSpace=wrap;html=1;fontSize=11;" vertex="1" parent="1"><mxGeometry x="1580" y="1210" width="280" height="28" as="geometry" /></mxCell><mxCell id="398" style="endArrow=block;rounded=0;jettySize=auto;" edge="1" parent="1" source="2" target="3"><mxGeometry relative="1" as="geometry" /></mxCell><mxCell id="399" style="endArrow=block;rounded=0;jettySize=auto;" edge="1" parent="1" source="3" target="4"><mxGeometry relative="1" as="geometry" /></mxCell><mxCell id="400" style="endArrow=block;rounded=0;jettySize=auto;" edge="1" parent="1" source="4" target="5"><mxGeometry relative="1" as="geometry" /></mxCell><mxCell id="401" style="endArrow=block;rounded=0;jettySize=auto;" edge="1" parent="1" source="4" target="6"><mxGeometry relative="1" as="geometry" /></mxCell><mxCell id="402" style="endArrow=block;rounded=0;jettySize=auto;" edge="1" parent="1" source="4" target="7"><mxGeometry relative="1" as="geometry" /></mxCell><mxCell id="403" style="endArrow=block;rounded=0;jettySize=auto;" edge="1" parent="1" source="4" target="8"><mxGeometry relative="1" as="geometry" /></mxCell><mxCell id="404" style="endArrow=block;rounded=0;jettySize=auto;" edge="1" parent="1" source="3" target="9"><mxGeometry relative="1" as="geometry" /></mxCell><mxCell id="405" style="endArrow=block;rounded=0;jettySize=auto;" edge="1" parent="1" source="9" target="10"><mxGeometry relative="1" as="geometry" /></mxCell><mxCell id="406" style="endArrow=block;rounded=0;jettySize=auto;" edge="1" parent="1" source="10" target="11"><mxGeometry relative="1" as="geometry" /></mxCell><mxCell id="407" style="endArrow=block;rounded=0;jettySize=auto;" edge="1" parent="1" source="11" target="12"><mxGeometry relative="1" as="geometry" /></mxCell><mxCell id="408" style="endArrow=block;rounded=0;jettySize=auto;" edge="1" parent="1" source="11" target="13"><mxGeometry relative="1" as="geometry" /></mxCell><mxCell id="409" style="endArrow=block;rounded=0;jettySize=auto;" edge="1" parent="1" source="13" target="14"><mxGeometry relative="1" as="geometry" /></mxCell><mxCell id="410" style="endArrow=block;rounded=0;jettySize=auto;" edge="1" parent="1" source="11" target="15"><mxGeometry relative="1" as="geometry" /></mxCell><mxCell id="411" style="endArrow=block;rounded=0;jettySize=auto;" edge="1" parent="1" source="15" target="16"><mxGeometry relative="1" as="geometry" /></mxCell><mxCell id="412" style="endArrow=block;rounded=0;jettySize=auto;" edge="1" parent="1" source="11" target="17"><mxGeometry relative="1" as="geometry" /></mxCell><mxCell id="413" style="endArrow=block;rounded=0;jettySize=auto;" edge="1" parent="1" source="17" target="18"><mxGeometry relative="1" as="geometry" /></mxCell><mxCell id="414" style="endArrow=block;rounded=0;jettySize=auto;" edge="1" parent="1" source="18" target="19"><mxGeometry relative="1" as="geometry" /></mxCell><mxCell id="415" style="endArrow=block;rounded=0;jettySize=auto;" edge="1" parent="1" source="19" target="20"><mxGeometry relative="1" as="geometry" /></mxCell><mxCell id="416" style="endArrow=block;rounded=0;jettySize=auto;" edge="1" parent="1" source="19" target="21"><mxGeometry relative="1" as="geometry" /></mxCell><mxCell id="417" style="endArrow=block;rounded=0;jettySize=auto;" edge="1" parent="1" source="21" target="22"><mxGeometry relative="1" as="geometry" /></mxCell><mxCell id="418" style="endArrow=block;rounded=0;jettySize=auto;" edge="1" parent="1" source="22" target="23"><mxGeometry relative="1" as="geometry" /></mxCell><mxCell id="419" style="endArrow=block;rounded=0;jettySize=auto;" edge="1" parent="1" source="21" target="24"><mxGeometry relative="1" as="geometry" /></mxCell><mxCell id="420" style="endArrow=block;rounded=0;jettySize=auto;" edge="1" parent="1" source="24" target="25"><mxGeometry relative="1" as="geometry" /></mxCell><mxCell id="421" style="endArrow=block;rounded=0;jettySize=auto;" edge="1" parent="1" source="21" target="26"><mxGeometry relative="1" as="geometry" /></mxCell><mxCell id="422" style="endArrow=block;rounded=0;jettySize=auto;" edge="1" parent="1" source="26" target="27"><mxGeometry relative="1" as="geometry" /></mxCell><mxCell id="423" style="endArrow=block;rounded=0;jettySize=auto;" edge="1" parent="1" source="18" target="28"><mxGeometry relative="1" as="geometry" /></mxCell><mxCell id="424" style="endArrow=block;rounded=0;jettySize=auto;" edge="1" parent="1" source="28" target="29"><mxGeometry relative="1" as="geometry" /></mxCell><mxCell id="425" style="endArrow=block;rounded=0;jettySize=auto;" edge="1" parent="1" source="28" target="30"><mxGeometry relative="1" as="geometry" /></mxCell><mxCell id="426" style="endArrow=block;rounded=0;jettySize=auto;" edge="1" parent="1" source="30" target="31"><mxGeometry relative="1" as="geometry" /></mxCell><mxCell id="427" style="endArrow=block;rounded=0;jettySize=auto;" edge="1" parent="1" source="31" target="32"><mxGeometry relative="1" as="geometry" /></mxCell><mxCell id="428" style="endArrow=block;rounded=0;jettySize=auto;" edge="1" parent="1" source="30" target="33"><mxGeometry relative="1" as="geometry" /></mxCell><mxCell id="429" style="endArrow=block;rounded=0;jettySize=auto;" edge="1" parent="1" source="33" target="34"><mxGeometry relative="1" as="geometry" /></mxCell><mxCell id="430" style="endArrow=block;rounded=0;jettySize=auto;" edge="1" parent="1" source="30" target="35"><mxGeometry relative="1" as="geometry" /></mxCell><mxCell id="431" style="endArrow=block;rounded=0;jettySize=auto;" edge="1" parent="1" source="35" target="36"><mxGeometry relative="1" as="geometry" /></mxCell><mxCell id="432" style="endArrow=block;rounded=0;jettySize=auto;" edge="1" parent="1" source="18" target="37"><mxGeometry relative="1" as="geometry" /></mxCell><mxCell id="433" style="endArrow=block;rounded=0;jettySize=auto;" edge="1" parent="1" source="37" target="38"><mxGeometry relative="1" as="geometry" /></mxCell><mxCell id="434" style="endArrow=block;rounded=0;jettySize=auto;" edge="1" parent="1" source="11" target="39"><mxGeometry relative="1" as="geometry" /></mxCell><mxCell id="435" style="endArrow=block;rounded=0;jettySize=auto;" edge="1" parent="1" source="39" target="40"><mxGeometry relative="1" as="geometry" /></mxCell><mxCell id="436" style="endArrow=block;rounded=0;jettySize=auto;" edge="1" parent="1" source="40" target="41"><mxGeometry relative="1" as="geometry" /></mxCell><mxCell id="437" style="endArrow=block;rounded=0;jettySize=auto;" edge="1" parent="1" source="41" target="42"><mxGeometry relative="1" as="geometry" /></mxCell><mxCell id="438" style="endArrow=block;rounded=0;jettySize=auto;" edge="1" parent="1" source="42" target="43"><mxGeometry relative="1" as="geometry" /></mxCell><mxCell id="439" style="endArrow=block;rounded=0;jettySize=auto;" edge="1" parent="1" source="41" target="44"><mxGeometry relative="1" as="geometry" /></mxCell><mxCell id="440" style="endArrow=block;rounded=0;jettySize=auto;" edge="1" parent="1" source="40" target="45"><mxGeometry relative="1" as="geometry" /></mxCell><mxCell id="441" style="endArrow=block;rounded=0;jettySize=auto;" edge="1" parent="1" source="45" target="46"><mxGeometry relative="1" as="geometry" /></mxCell><mxCell id="442" style="endArrow=block;rounded=0;jettySize=auto;" edge="1" parent="1" source="46" target="47"><mxGeometry relative="1" as="geometry" /></mxCell><mxCell id="443" style="endArrow=block;rounded=0;jettySize=auto;" edge="1" parent="1" source="45" target="48"><mxGeometry relative="1" as="geometry" /></mxCell><mxCell id="444" style="endArrow=block;rounded=0;jettySize=auto;" edge="1" parent="1" source="40" target="49"><mxGeometry relative="1" as="geometry" /></mxCell><mxCell id="445" style="endArrow=block;rounded=0;jettySize=auto;" edge="1" parent="1" source="49" target="50"><mxGeometry relative="1" as="geometry" /></mxCell><mxCell id="446" style="endArrow=block;rounded=0;jettySize=auto;" edge="1" parent="1" source="49" target="51"><mxGeometry relative="1" as="geometry" /></mxCell><mxCell id="447" style="endArrow=block;rounded=0;jettySize=auto;" edge="1" parent="1" source="9" target="52"><mxGeometry relative="1" as="geometry" /></mxCell><mxCell id="448" style="endArrow=block;rounded=0;jettySize=auto;" edge="1" parent="1" source="52" target="53"><mxGeometry relative="1" as="geometry" /></mxCell><mxCell id="449" style="endArrow=block;rounded=0;jettySize=auto;" edge="1" parent="1" source="53" target="54"><mxGeometry relative="1" as="geometry" /></mxCell><mxCell id="450" style="endArrow=block;rounded=0;jettySize=auto;" edge="1" parent="1" source="53" target="55"><mxGeometry relative="1" as="geometry" /></mxCell><mxCell id="451" style="endArrow=block;rounded=0;jettySize=auto;" edge="1" parent="1" source="55" target="56"><mxGeometry relative="1" as="geometry" /></mxCell><mxCell id="452" style="endArrow=block;rounded=0;jettySize=auto;" edge="1" parent="1" source="56" target="57"><mxGeometry relative="1" as="geometry" /></mxCell><mxCell id="453" style="endArrow=block;rounded=0;jettySize=auto;" edge="1" parent="1" source="57" target="58"><mxGeometry relative="1" as="geometry" /></mxCell><mxCell id="454" style="endArrow=block;rounded=0;jettySize=auto;" edge="1" parent="1" source="56" target="59"><mxGeometry relative="1" as="geometry" /></mxCell><mxCell id="455" style="endArrow=block;rounded=0;jettySize=auto;" edge="1" parent="1" source="55" target="60"><mxGeometry relative="1" as="geometry" /></mxCell><mxCell id="456" style="endArrow=block;rounded=0;jettySize=auto;" edge="1" parent="1" source="60" target="61"><mxGeometry relative="1" as="geometry" /></mxCell><mxCell id="457" style="endArrow=block;rounded=0;jettySize=auto;" edge="1" parent="1" source="61" target="62"><mxGeometry relative="1" as="geometry" /></mxCell><mxCell id="458" style="endArrow=block;rounded=0;jettySize=auto;" edge="1" parent="1" source="61" target="63"><mxGeometry relative="1" as="geometry" /></mxCell><mxCell id="459" style="endArrow=block;rounded=0;jettySize=auto;" edge="1" parent="1" source="63" target="64"><mxGeometry relative="1" as="geometry" /></mxCell><mxCell id="460" style="endArrow=block;rounded=0;jettySize=auto;" edge="1" parent="1" source="64" target="65"><mxGeometry relative="1" as="geometry" /></mxCell><mxCell id="461" style="endArrow=block;rounded=0;jettySize=auto;" edge="1" parent="1" source="65" target="66"><mxGeometry relative="1" as="geometry" /></mxCell><mxCell id="462" style="endArrow=block;rounded=0;jettySize=auto;" edge="1" parent="1" source="66" target="67"><mxGeometry relative="1" as="geometry" /></mxCell><mxCell id="463" style="endArrow=block;rounded=0;jettySize=auto;" edge="1" parent="1" source="67" target="68"><mxGeometry relative="1" as="geometry" /></mxCell><mxCell id="464" style="endArrow=block;rounded=0;jettySize=auto;" edge="1" parent="1" source="68" target="69"><mxGeometry relative="1" as="geometry" /></mxCell><mxCell id="465" style="endArrow=block;rounded=0;jettySize=auto;" edge="1" parent="1" source="69" target="70"><mxGeometry relative="1" as="geometry" /></mxCell><mxCell id="466" style="endArrow=block;rounded=0;jettySize=auto;" edge="1" parent="1" source="70" target="71"><mxGeometry relative="1" as="geometry" /></mxCell><mxCell id="467" style="endArrow=block;rounded=0;jettySize=auto;" edge="1" parent="1" source="71" target="72"><mxGeometry relative="1" as="geometry" /></mxCell><mxCell id="468" style="endArrow=block;rounded=0;jettySize=auto;" edge="1" parent="1" source="72" target="73"><mxGeometry relative="1" as="geometry" /></mxCell><mxCell id="469" style="endArrow=block;rounded=0;jettySize=auto;" edge="1" parent="1" source="73" target="74"><mxGeometry relative="1" as="geometry" /></mxCell><mxCell id="470" style="endArrow=block;rounded=0;jettySize=auto;" edge="1" parent="1" source="73" target="75"><mxGeometry relative="1" as="geometry" /></mxCell><mxCell id="471" style="endArrow=block;rounded=0;jettySize=auto;" edge="1" parent="1" source="73" target="76"><mxGeometry relative="1" as="geometry" /></mxCell><mxCell id="472" style="endArrow=block;rounded=0;jettySize=auto;" edge="1" parent="1" source="71" target="77"><mxGeometry relative="1" as="geometry" /></mxCell><mxCell id="473" style="endArrow=block;rounded=0;jettySize=auto;" edge="1" parent="1" source="69" target="78"><mxGeometry relative="1" as="geometry" /></mxCell><mxCell id="474" style="endArrow=block;rounded=0;jettySize=auto;" edge="1" parent="1" source="67" target="79"><mxGeometry relative="1" as="geometry" /></mxCell><mxCell id="475" style="endArrow=block;rounded=0;jettySize=auto;" edge="1" parent="1" source="65" target="80"><mxGeometry relative="1" as="geometry" /></mxCell><mxCell id="476" style="endArrow=block;rounded=0;jettySize=auto;" edge="1" parent="1" source="63" target="81"><mxGeometry relative="1" as="geometry" /></mxCell><mxCell id="477" style="endArrow=block;rounded=0;jettySize=auto;" edge="1" parent="1" source="81" target="82"><mxGeometry relative="1" as="geometry" /></mxCell><mxCell id="478" style="endArrow=block;rounded=0;jettySize=auto;" edge="1" parent="1" source="82" target="83"><mxGeometry relative="1" as="geometry" /></mxCell><mxCell id="479" style="endArrow=block;rounded=0;jettySize=auto;" edge="1" parent="1" source="82" target="84"><mxGeometry relative="1" as="geometry" /></mxCell><mxCell id="480" style="endArrow=block;rounded=0;jettySize=auto;" edge="1" parent="1" source="63" target="85"><mxGeometry relative="1" as="geometry" /></mxCell><mxCell id="481" style="endArrow=block;rounded=0;jettySize=auto;" edge="1" parent="1" source="60" target="86"><mxGeometry relative="1" as="geometry" /></mxCell><mxCell id="482" style="endArrow=block;rounded=0;jettySize=auto;" edge="1" parent="1" source="86" target="87"><mxGeometry relative="1" as="geometry" /></mxCell><mxCell id="483" style="endArrow=block;rounded=0;jettySize=auto;" edge="1" parent="1" source="86" target="88"><mxGeometry relative="1" as="geometry" /></mxCell><mxCell id="484" style="endArrow=block;rounded=0;jettySize=auto;" edge="1" parent="1" source="88" target="89"><mxGeometry relative="1" as="geometry" /></mxCell><mxCell id="485" style="endArrow=block;rounded=0;jettySize=auto;" edge="1" parent="1" source="89" target="90"><mxGeometry relative="1" as="geometry" /></mxCell><mxCell id="486" style="endArrow=block;rounded=0;jettySize=auto;" edge="1" parent="1" source="90" target="91"><mxGeometry relative="1" as="geometry" /></mxCell><mxCell id="487" style="endArrow=block;rounded=0;jettySize=auto;" edge="1" parent="1" source="90" target="92"><mxGeometry relative="1" as="geometry" /></mxCell><mxCell id="488" style="endArrow=block;rounded=0;jettySize=auto;" edge="1" parent="1" source="92" target="93"><mxGeometry relative="1" as="geometry" /></mxCell><mxCell id="489" style="endArrow=block;rounded=0;jettySize=auto;" edge="1" parent="1" source="93" target="94"><mxGeometry relative="1" as="geometry" /></mxCell><mxCell id="490" style="endArrow=block;rounded=0;jettySize=auto;" edge="1" parent="1" source="93" target="95"><mxGeometry relative="1" as="geometry" /></mxCell><mxCell id="491" style="endArrow=block;rounded=0;jettySize=auto;" edge="1" parent="1" source="95" target="96"><mxGeometry relative="1" as="geometry" /></mxCell><mxCell id="492" style="endArrow=block;rounded=0;jettySize=auto;" edge="1" parent="1" source="96" target="97"><mxGeometry relative="1" as="geometry" /></mxCell><mxCell id="493" style="endArrow=block;rounded=0;jettySize=auto;" edge="1" parent="1" source="96" target="98"><mxGeometry relative="1" as="geometry" /></mxCell><mxCell id="494" style="endArrow=block;rounded=0;jettySize=auto;" edge="1" parent="1" source="88" target="99"><mxGeometry relative="1" as="geometry" /></mxCell><mxCell id="495" style="endArrow=block;rounded=0;jettySize=auto;" edge="1" parent="1" source="88" target="100"><mxGeometry relative="1" as="geometry" /></mxCell><mxCell id="496" style="endArrow=block;rounded=0;jettySize=auto;" edge="1" parent="1" source="55" target="101"><mxGeometry relative="1" as="geometry" /></mxCell><mxCell id="497" style="endArrow=block;rounded=0;jettySize=auto;" edge="1" parent="1" source="101" target="102"><mxGeometry relative="1" as="geometry" /></mxCell><mxCell id="498" style="endArrow=block;rounded=0;jettySize=auto;" edge="1" parent="1" source="101" target="103"><mxGeometry relative="1" as="geometry" /></mxCell><mxCell id="499" style="endArrow=block;rounded=0;jettySize=auto;" edge="1" parent="1" source="103" target="104"><mxGeometry relative="1" as="geometry" /></mxCell><mxCell id="500" style="endArrow=block;rounded=0;jettySize=auto;" edge="1" parent="1" source="103" target="105"><mxGeometry relative="1" as="geometry" /></mxCell><mxCell id="501" style="endArrow=block;rounded=0;jettySize=auto;" edge="1" parent="1" source="105" target="106"><mxGeometry relative="1" as="geometry" /></mxCell><mxCell id="502" style="endArrow=block;rounded=0;jettySize=auto;" edge="1" parent="1" source="106" target="107"><mxGeometry relative="1" as="geometry" /></mxCell><mxCell id="503" style="endArrow=block;rounded=0;jettySize=auto;" edge="1" parent="1" source="106" target="108"><mxGeometry relative="1" as="geometry" /></mxCell><mxCell id="504" style="endArrow=block;rounded=0;jettySize=auto;" edge="1" parent="1" source="106" target="109"><mxGeometry relative="1" as="geometry" /></mxCell><mxCell id="505" style="endArrow=block;rounded=0;jettySize=auto;" edge="1" parent="1" source="106" target="110"><mxGeometry relative="1" as="geometry" /></mxCell><mxCell id="506" style="endArrow=block;rounded=0;jettySize=auto;" edge="1" parent="1" source="106" target="111"><mxGeometry relative="1" as="geometry" /></mxCell><mxCell id="507" style="endArrow=block;rounded=0;jettySize=auto;" edge="1" parent="1" source="103" target="112"><mxGeometry relative="1" as="geometry" /></mxCell><mxCell id="508" style="endArrow=block;rounded=0;jettySize=auto;" edge="1" parent="1" source="112" target="113"><mxGeometry relative="1" as="geometry" /></mxCell><mxCell id="509" style="endArrow=block;rounded=0;jettySize=auto;" edge="1" parent="1" source="113" target="114"><mxGeometry relative="1" as="geometry" /></mxCell><mxCell id="510" style="endArrow=block;rounded=0;jettySize=auto;" edge="1" parent="1" source="113" target="115"><mxGeometry relative="1" as="geometry" /></mxCell><mxCell id="511" style="endArrow=block;rounded=0;jettySize=auto;" edge="1" parent="1" source="113" target="116"><mxGeometry relative="1" as="geometry" /></mxCell><mxCell id="512" style="endArrow=block;rounded=0;jettySize=auto;" edge="1" parent="1" source="113" target="117"><mxGeometry relative="1" as="geometry" /></mxCell><mxCell id="513" style="endArrow=block;rounded=0;jettySize=auto;" edge="1" parent="1" source="113" target="118"><mxGeometry relative="1" as="geometry" /></mxCell><mxCell id="514" style="endArrow=block;rounded=0;jettySize=auto;" edge="1" parent="1" source="112" target="119"><mxGeometry relative="1" as="geometry" /></mxCell><mxCell id="515" style="endArrow=block;rounded=0;jettySize=auto;" edge="1" parent="1" source="119" target="120"><mxGeometry relative="1" as="geometry" /></mxCell><mxCell id="516" style="endArrow=block;rounded=0;jettySize=auto;" edge="1" parent="1" source="119" target="121"><mxGeometry relative="1" as="geometry" /></mxCell><mxCell id="517" style="endArrow=block;rounded=0;jettySize=auto;" edge="1" parent="1" source="119" target="122"><mxGeometry relative="1" as="geometry" /></mxCell><mxCell id="518" style="endArrow=block;rounded=0;jettySize=auto;" edge="1" parent="1" source="119" target="123"><mxGeometry relative="1" as="geometry" /></mxCell><mxCell id="519" style="endArrow=block;rounded=0;jettySize=auto;" edge="1" parent="1" source="112" target="124"><mxGeometry relative="1" as="geometry" /></mxCell><mxCell id="520" style="endArrow=block;rounded=0;jettySize=auto;" edge="1" parent="1" source="124" target="125"><mxGeometry relative="1" as="geometry" /></mxCell><mxCell id="521" style="endArrow=block;rounded=0;jettySize=auto;" edge="1" parent="1" source="124" target="126"><mxGeometry relative="1" as="geometry" /></mxCell><mxCell id="522" style="endArrow=block;rounded=0;jettySize=auto;" edge="1" parent="1" source="124" target="127"><mxGeometry relative="1" as="geometry" /></mxCell><mxCell id="523" style="endArrow=block;rounded=0;jettySize=auto;" edge="1" parent="1" source="124" target="128"><mxGeometry relative="1" as="geometry" /></mxCell><mxCell id="524" style="endArrow=block;rounded=0;jettySize=auto;" edge="1" parent="1" source="112" target="129"><mxGeometry relative="1" as="geometry" /></mxCell><mxCell id="525" style="endArrow=block;rounded=0;jettySize=auto;" edge="1" parent="1" source="129" target="130"><mxGeometry relative="1" as="geometry" /></mxCell><mxCell id="526" style="endArrow=block;rounded=0;jettySize=auto;" edge="1" parent="1" source="129" target="131"><mxGeometry relative="1" as="geometry" /></mxCell><mxCell id="527" style="endArrow=block;rounded=0;jettySize=auto;" edge="1" parent="1" source="129" target="132"><mxGeometry relative="1" as="geometry" /></mxCell><mxCell id="528" style="endArrow=block;rounded=0;jettySize=auto;" edge="1" parent="1" source="129" target="133"><mxGeometry relative="1" as="geometry" /></mxCell><mxCell id="529" style="endArrow=block;rounded=0;jettySize=auto;" edge="1" parent="1" source="103" target="134"><mxGeometry relative="1" as="geometry" /></mxCell><mxCell id="530" style="endArrow=block;rounded=0;jettySize=auto;" edge="1" parent="1" source="134" target="135"><mxGeometry relative="1" as="geometry" /></mxCell><mxCell id="531" style="endArrow=block;rounded=0;jettySize=auto;" edge="1" parent="1" source="135" target="136"><mxGeometry relative="1" as="geometry" /></mxCell><mxCell id="532" style="endArrow=block;rounded=0;jettySize=auto;" edge="1" parent="1" source="135" target="137"><mxGeometry relative="1" as="geometry" /></mxCell><mxCell id="533" style="endArrow=block;rounded=0;jettySize=auto;" edge="1" parent="1" source="135" target="138"><mxGeometry relative="1" as="geometry" /></mxCell><mxCell id="534" style="endArrow=block;rounded=0;jettySize=auto;" edge="1" parent="1" source="135" target="139"><mxGeometry relative="1" as="geometry" /></mxCell><mxCell id="535" style="endArrow=block;rounded=0;jettySize=auto;" edge="1" parent="1" source="55" target="140"><mxGeometry relative="1" as="geometry" /></mxCell><mxCell id="536" style="endArrow=block;rounded=0;jettySize=auto;" edge="1" parent="1" source="140" target="141"><mxGeometry relative="1" as="geometry" /></mxCell><mxCell id="537" style="endArrow=block;rounded=0;jettySize=auto;" edge="1" parent="1" source="140" target="142"><mxGeometry relative="1" as="geometry" /></mxCell><mxCell id="538" style="endArrow=block;rounded=0;jettySize=auto;" edge="1" parent="1" source="142" target="143"><mxGeometry relative="1" as="geometry" /></mxCell><mxCell id="539" style="endArrow=block;rounded=0;jettySize=auto;" edge="1" parent="1" source="142" target="144"><mxGeometry relative="1" as="geometry" /></mxCell><mxCell id="540" style="endArrow=block;rounded=0;jettySize=auto;" edge="1" parent="1" source="144" target="145"><mxGeometry relative="1" as="geometry" /></mxCell><mxCell id="541" style="endArrow=block;rounded=0;jettySize=auto;" edge="1" parent="1" source="142" target="146"><mxGeometry relative="1" as="geometry" /></mxCell><mxCell id="542" style="endArrow=block;rounded=0;jettySize=auto;" edge="1" parent="1" source="146" target="147"><mxGeometry relative="1" as="geometry" /></mxCell><mxCell id="543" style="endArrow=block;rounded=0;jettySize=auto;" edge="1" parent="1" source="146" target="148"><mxGeometry relative="1" as="geometry" /></mxCell><mxCell id="544" style="endArrow=block;rounded=0;jettySize=auto;" edge="1" parent="1" source="148" target="149"><mxGeometry relative="1" as="geometry" /></mxCell><mxCell id="545" style="endArrow=block;rounded=0;jettySize=auto;" edge="1" parent="1" source="148" target="150"><mxGeometry relative="1" as="geometry" /></mxCell><mxCell id="546" style="endArrow=block;rounded=0;jettySize=auto;" edge="1" parent="1" source="148" target="151"><mxGeometry relative="1" as="geometry" /></mxCell><mxCell id="547" style="endArrow=block;rounded=0;jettySize=auto;" edge="1" parent="1" source="140" target="152"><mxGeometry relative="1" as="geometry" /></mxCell><mxCell id="548" style="endArrow=block;rounded=0;jettySize=auto;" edge="1" parent="1" source="152" target="153"><mxGeometry relative="1" as="geometry" /></mxCell><mxCell id="549" style="endArrow=block;rounded=0;jettySize=auto;" edge="1" parent="1" source="152" target="154"><mxGeometry relative="1" as="geometry" /></mxCell><mxCell id="550" style="endArrow=block;rounded=0;jettySize=auto;" edge="1" parent="1" source="154" target="155"><mxGeometry relative="1" as="geometry" /></mxCell><mxCell id="551" style="endArrow=block;rounded=0;jettySize=auto;" edge="1" parent="1" source="154" target="156"><mxGeometry relative="1" as="geometry" /></mxCell><mxCell id="552" style="endArrow=block;rounded=0;jettySize=auto;" edge="1" parent="1" source="154" target="157"><mxGeometry relative="1" as="geometry" /></mxCell><mxCell id="553" style="endArrow=block;rounded=0;jettySize=auto;" edge="1" parent="1" source="154" target="158"><mxGeometry relative="1" as="geometry" /></mxCell><mxCell id="554" style="endArrow=block;rounded=0;jettySize=auto;" edge="1" parent="1" source="154" target="159"><mxGeometry relative="1" as="geometry" /></mxCell><mxCell id="555" style="endArrow=block;rounded=0;jettySize=auto;" edge="1" parent="1" source="154" target="160"><mxGeometry relative="1" as="geometry" /></mxCell><mxCell id="556" style="endArrow=block;rounded=0;jettySize=auto;" edge="1" parent="1" source="55" target="161"><mxGeometry relative="1" as="geometry" /></mxCell><mxCell id="557" style="endArrow=block;rounded=0;jettySize=auto;" edge="1" parent="1" source="161" target="162"><mxGeometry relative="1" as="geometry" /></mxCell><mxCell id="558" style="endArrow=block;rounded=0;jettySize=auto;" edge="1" parent="1" source="162" target="163"><mxGeometry relative="1" as="geometry" /></mxCell><mxCell id="559" style="endArrow=block;rounded=0;jettySize=auto;" edge="1" parent="1" source="53" target="164"><mxGeometry relative="1" as="geometry" /></mxCell><mxCell id="560" style="endArrow=block;rounded=0;jettySize=auto;" edge="1" parent="1" source="164" target="165"><mxGeometry relative="1" as="geometry" /></mxCell><mxCell id="561" style="endArrow=block;rounded=0;jettySize=auto;" edge="1" parent="1" source="165" target="166"><mxGeometry relative="1" as="geometry" /></mxCell><mxCell id="562" style="endArrow=block;rounded=0;jettySize=auto;" edge="1" parent="1" source="165" target="167"><mxGeometry relative="1" as="geometry" /></mxCell><mxCell id="563" style="endArrow=block;rounded=0;jettySize=auto;" edge="1" parent="1" source="164" target="168"><mxGeometry relative="1" as="geometry" /></mxCell><mxCell id="564" style="endArrow=block;rounded=0;jettySize=auto;" edge="1" parent="1" source="168" target="169"><mxGeometry relative="1" as="geometry" /></mxCell><mxCell id="565" style="endArrow=block;rounded=0;jettySize=auto;" edge="1" parent="1" source="168" target="170"><mxGeometry relative="1" as="geometry" /></mxCell><mxCell id="566" style="endArrow=block;rounded=0;jettySize=auto;" edge="1" parent="1" source="170" target="171"><mxGeometry relative="1" as="geometry" /></mxCell><mxCell id="567" style="endArrow=block;rounded=0;jettySize=auto;" edge="1" parent="1" source="171" target="172"><mxGeometry relative="1" as="geometry" /></mxCell><mxCell id="568" style="endArrow=block;rounded=0;jettySize=auto;" edge="1" parent="1" source="172" target="173"><mxGeometry relative="1" as="geometry" /></mxCell><mxCell id="569" style="endArrow=block;rounded=0;jettySize=auto;" edge="1" parent="1" source="172" target="174"><mxGeometry relative="1" as="geometry" /></mxCell><mxCell id="570" style="endArrow=block;rounded=0;jettySize=auto;" edge="1" parent="1" source="174" target="175"><mxGeometry relative="1" as="geometry" /></mxCell><mxCell id="571" style="endArrow=block;rounded=0;jettySize=auto;" edge="1" parent="1" source="175" target="176"><mxGeometry relative="1" as="geometry" /></mxCell><mxCell id="572" style="endArrow=block;rounded=0;jettySize=auto;" edge="1" parent="1" source="175" target="177"><mxGeometry relative="1" as="geometry" /></mxCell><mxCell id="573" style="endArrow=block;rounded=0;jettySize=auto;" edge="1" parent="1" source="175" target="178"><mxGeometry relative="1" as="geometry" /></mxCell><mxCell id="574" style="endArrow=block;rounded=0;jettySize=auto;" edge="1" parent="1" source="178" target="179"><mxGeometry relative="1" as="geometry" /></mxCell><mxCell id="575" style="endArrow=block;rounded=0;jettySize=auto;" edge="1" parent="1" source="179" target="180"><mxGeometry relative="1" as="geometry" /></mxCell><mxCell id="576" style="endArrow=block;rounded=0;jettySize=auto;" edge="1" parent="1" source="179" target="181"><mxGeometry relative="1" as="geometry" /></mxCell><mxCell id="577" style="endArrow=block;rounded=0;jettySize=auto;" edge="1" parent="1" source="181" target="182"><mxGeometry relative="1" as="geometry" /></mxCell><mxCell id="578" style="endArrow=block;rounded=0;jettySize=auto;" edge="1" parent="1" source="182" target="183"><mxGeometry relative="1" as="geometry" /></mxCell><mxCell id="579" style="endArrow=block;rounded=0;jettySize=auto;" edge="1" parent="1" source="182" target="184"><mxGeometry relative="1" as="geometry" /></mxCell><mxCell id="580" style="endArrow=block;rounded=0;jettySize=auto;" edge="1" parent="1" source="170" target="185"><mxGeometry relative="1" as="geometry" /></mxCell><mxCell id="581" style="endArrow=block;rounded=0;jettySize=auto;" edge="1" parent="1" source="170" target="186"><mxGeometry relative="1" as="geometry" /></mxCell><mxCell id="582" style="endArrow=block;rounded=0;jettySize=auto;" edge="1" parent="1" source="170" target="187"><mxGeometry relative="1" as="geometry" /></mxCell><mxCell id="583" style="endArrow=block;rounded=0;jettySize=auto;" edge="1" parent="1" source="164" target="188"><mxGeometry relative="1" as="geometry" /></mxCell><mxCell id="584" style="endArrow=block;rounded=0;jettySize=auto;" edge="1" parent="1" source="188" target="189"><mxGeometry relative="1" as="geometry" /></mxCell><mxCell id="585" style="endArrow=block;rounded=0;jettySize=auto;" edge="1" parent="1" source="188" target="190"><mxGeometry relative="1" as="geometry" /></mxCell><mxCell id="586" style="endArrow=block;rounded=0;jettySize=auto;" edge="1" parent="1" source="190" target="191"><mxGeometry relative="1" as="geometry" /></mxCell><mxCell id="587" style="endArrow=block;rounded=0;jettySize=auto;" edge="1" parent="1" source="190" target="192"><mxGeometry relative="1" as="geometry" /></mxCell><mxCell id="588" style="endArrow=block;rounded=0;jettySize=auto;" edge="1" parent="1" source="192" target="193"><mxGeometry relative="1" as="geometry" /></mxCell><mxCell id="589" style="endArrow=block;rounded=0;jettySize=auto;" edge="1" parent="1" source="193" target="194"><mxGeometry relative="1" as="geometry" /></mxCell><mxCell id="590" style="endArrow=block;rounded=0;jettySize=auto;" edge="1" parent="1" source="192" target="195"><mxGeometry relative="1" as="geometry" /></mxCell><mxCell id="591" style="endArrow=block;rounded=0;jettySize=auto;" edge="1" parent="1" source="188" target="196"><mxGeometry relative="1" as="geometry" /></mxCell><mxCell id="592" style="endArrow=block;rounded=0;jettySize=auto;" edge="1" parent="1" source="196" target="197"><mxGeometry relative="1" as="geometry" /></mxCell><mxCell id="593" style="endArrow=block;rounded=0;jettySize=auto;" edge="1" parent="1" source="196" target="198"><mxGeometry relative="1" as="geometry" /></mxCell><mxCell id="594" style="endArrow=block;rounded=0;jettySize=auto;" edge="1" parent="1" source="198" target="199"><mxGeometry relative="1" as="geometry" /></mxCell><mxCell id="595" style="endArrow=block;rounded=0;jettySize=auto;" edge="1" parent="1" source="198" target="200"><mxGeometry relative="1" as="geometry" /></mxCell><mxCell id="596" style="endArrow=block;rounded=0;jettySize=auto;" edge="1" parent="1" source="164" target="201"><mxGeometry relative="1" as="geometry" /></mxCell><mxCell id="597" style="endArrow=block;rounded=0;jettySize=auto;" edge="1" parent="1" source="201" target="202"><mxGeometry relative="1" as="geometry" /></mxCell><mxCell id="598" style="endArrow=block;rounded=0;jettySize=auto;" edge="1" parent="1" source="201" target="203"><mxGeometry relative="1" as="geometry" /></mxCell><mxCell id="599" style="endArrow=block;rounded=0;jettySize=auto;" edge="1" parent="1" source="203" target="204"><mxGeometry relative="1" as="geometry" /></mxCell><mxCell id="600" style="endArrow=block;rounded=0;jettySize=auto;" edge="1" parent="1" source="204" target="205"><mxGeometry relative="1" as="geometry" /></mxCell><mxCell id="601" style="endArrow=block;rounded=0;jettySize=auto;" edge="1" parent="1" source="204" target="206"><mxGeometry relative="1" as="geometry" /></mxCell><mxCell id="602" style="endArrow=block;rounded=0;jettySize=auto;" edge="1" parent="1" source="206" target="207"><mxGeometry relative="1" as="geometry" /></mxCell><mxCell id="603" style="endArrow=block;rounded=0;jettySize=auto;" edge="1" parent="1" source="207" target="208"><mxGeometry relative="1" as="geometry" /></mxCell><mxCell id="604" style="endArrow=block;rounded=0;jettySize=auto;" edge="1" parent="1" source="206" target="209"><mxGeometry relative="1" as="geometry" /></mxCell><mxCell id="605" style="endArrow=block;rounded=0;jettySize=auto;" edge="1" parent="1" source="209" target="210"><mxGeometry relative="1" as="geometry" /></mxCell><mxCell id="606" style="endArrow=block;rounded=0;jettySize=auto;" edge="1" parent="1" source="206" target="211"><mxGeometry relative="1" as="geometry" /></mxCell><mxCell id="607" style="endArrow=block;rounded=0;jettySize=auto;" edge="1" parent="1" source="211" target="212"><mxGeometry relative="1" as="geometry" /></mxCell><mxCell id="608" style="endArrow=block;rounded=0;jettySize=auto;" edge="1" parent="1" source="212" target="213"><mxGeometry relative="1" as="geometry" /></mxCell><mxCell id="609" style="endArrow=block;rounded=0;jettySize=auto;" edge="1" parent="1" source="213" target="214"><mxGeometry relative="1" as="geometry" /></mxCell><mxCell id="610" style="endArrow=block;rounded=0;jettySize=auto;" edge="1" parent="1" source="213" target="215"><mxGeometry relative="1" as="geometry" /></mxCell><mxCell id="611" style="endArrow=block;rounded=0;jettySize=auto;" edge="1" parent="1" source="213" target="216"><mxGeometry relative="1" as="geometry" /></mxCell><mxCell id="612" style="endArrow=block;rounded=0;jettySize=auto;" edge="1" parent="1" source="212" target="217"><mxGeometry relative="1" as="geometry" /></mxCell><mxCell id="613" style="endArrow=block;rounded=0;jettySize=auto;" edge="1" parent="1" source="217" target="218"><mxGeometry relative="1" as="geometry" /></mxCell><mxCell id="614" style="endArrow=block;rounded=0;jettySize=auto;" edge="1" parent="1" source="217" target="219"><mxGeometry relative="1" as="geometry" /></mxCell><mxCell id="615" style="endArrow=block;rounded=0;jettySize=auto;" edge="1" parent="1" source="203" target="220"><mxGeometry relative="1" as="geometry" /></mxCell><mxCell id="616" style="endArrow=block;rounded=0;jettySize=auto;" edge="1" parent="1" source="220" target="221"><mxGeometry relative="1" as="geometry" /></mxCell><mxCell id="617" style="endArrow=block;rounded=0;jettySize=auto;" edge="1" parent="1" source="220" target="222"><mxGeometry relative="1" as="geometry" /></mxCell><mxCell id="618" style="endArrow=block;rounded=0;jettySize=auto;" edge="1" parent="1" source="222" target="223"><mxGeometry relative="1" as="geometry" /></mxCell><mxCell id="619" style="endArrow=block;rounded=0;jettySize=auto;" edge="1" parent="1" source="223" target="224"><mxGeometry relative="1" as="geometry" /></mxCell><mxCell id="620" style="endArrow=block;rounded=0;jettySize=auto;" edge="1" parent="1" source="222" target="225"><mxGeometry relative="1" as="geometry" /></mxCell><mxCell id="621" style="endArrow=block;rounded=0;jettySize=auto;" edge="1" parent="1" source="225" target="226"><mxGeometry relative="1" as="geometry" /></mxCell><mxCell id="622" style="endArrow=block;rounded=0;jettySize=auto;" edge="1" parent="1" source="222" target="227"><mxGeometry relative="1" as="geometry" /></mxCell><mxCell id="623" style="endArrow=block;rounded=0;jettySize=auto;" edge="1" parent="1" source="227" target="228"><mxGeometry relative="1" as="geometry" /></mxCell><mxCell id="624" style="endArrow=block;rounded=0;jettySize=auto;" edge="1" parent="1" source="222" target="229"><mxGeometry relative="1" as="geometry" /></mxCell><mxCell id="625" style="endArrow=block;rounded=0;jettySize=auto;" edge="1" parent="1" source="229" target="230"><mxGeometry relative="1" as="geometry" /></mxCell><mxCell id="626" style="endArrow=block;rounded=0;jettySize=auto;" edge="1" parent="1" source="222" target="231"><mxGeometry relative="1" as="geometry" /></mxCell><mxCell id="627" style="endArrow=block;rounded=0;jettySize=auto;" edge="1" parent="1" source="231" target="232"><mxGeometry relative="1" as="geometry" /></mxCell><mxCell id="628" style="endArrow=block;rounded=0;jettySize=auto;" edge="1" parent="1" source="203" target="233"><mxGeometry relative="1" as="geometry" /></mxCell><mxCell id="629" style="endArrow=block;rounded=0;jettySize=auto;" edge="1" parent="1" source="233" target="234"><mxGeometry relative="1" as="geometry" /></mxCell><mxCell id="630" style="endArrow=block;rounded=0;jettySize=auto;" edge="1" parent="1" source="233" target="235"><mxGeometry relative="1" as="geometry" /></mxCell><mxCell id="631" style="endArrow=block;rounded=0;jettySize=auto;" edge="1" parent="1" source="164" target="236"><mxGeometry relative="1" as="geometry" /></mxCell><mxCell id="632" style="endArrow=block;rounded=0;jettySize=auto;" edge="1" parent="1" source="236" target="237"><mxGeometry relative="1" as="geometry" /></mxCell><mxCell id="633" style="endArrow=block;rounded=0;jettySize=auto;" edge="1" parent="1" source="237" target="238"><mxGeometry relative="1" as="geometry" /></mxCell><mxCell id="634" style="endArrow=block;rounded=0;jettySize=auto;" edge="1" parent="1" source="53" target="239"><mxGeometry relative="1" as="geometry" /></mxCell><mxCell id="635" style="endArrow=block;rounded=0;jettySize=auto;" edge="1" parent="1" source="239" target="240"><mxGeometry relative="1" as="geometry" /></mxCell><mxCell id="636" style="endArrow=block;rounded=0;jettySize=auto;" edge="1" parent="1" source="240" target="241"><mxGeometry relative="1" as="geometry" /></mxCell><mxCell id="637" style="endArrow=block;rounded=0;jettySize=auto;" edge="1" parent="1" source="240" target="242"><mxGeometry relative="1" as="geometry" /></mxCell><mxCell id="638" style="endArrow=block;rounded=0;jettySize=auto;" edge="1" parent="1" source="239" target="243"><mxGeometry relative="1" as="geometry" /></mxCell><mxCell id="639" style="endArrow=block;rounded=0;jettySize=auto;" edge="1" parent="1" source="243" target="244"><mxGeometry relative="1" as="geometry" /></mxCell><mxCell id="640" style="endArrow=block;rounded=0;jettySize=auto;" edge="1" parent="1" source="243" target="245"><mxGeometry relative="1" as="geometry" /></mxCell><mxCell id="641" style="endArrow=block;rounded=0;jettySize=auto;" edge="1" parent="1" source="245" target="246"><mxGeometry relative="1" as="geometry" /></mxCell><mxCell id="642" style="endArrow=block;rounded=0;jettySize=auto;" edge="1" parent="1" source="246" target="247"><mxGeometry relative="1" as="geometry" /></mxCell><mxCell id="643" style="endArrow=block;rounded=0;jettySize=auto;" edge="1" parent="1" source="247" target="248"><mxGeometry relative="1" as="geometry" /></mxCell><mxCell id="644" style="endArrow=block;rounded=0;jettySize=auto;" edge="1" parent="1" source="247" target="249"><mxGeometry relative="1" as="geometry" /></mxCell><mxCell id="645" style="endArrow=block;rounded=0;jettySize=auto;" edge="1" parent="1" source="249" target="250"><mxGeometry relative="1" as="geometry" /></mxCell><mxCell id="646" style="endArrow=block;rounded=0;jettySize=auto;" edge="1" parent="1" source="250" target="251"><mxGeometry relative="1" as="geometry" /></mxCell><mxCell id="647" style="endArrow=block;rounded=0;jettySize=auto;" edge="1" parent="1" source="250" target="252"><mxGeometry relative="1" as="geometry" /></mxCell><mxCell id="648" style="endArrow=block;rounded=0;jettySize=auto;" edge="1" parent="1" source="252" target="253"><mxGeometry relative="1" as="geometry" /></mxCell><mxCell id="649" style="endArrow=block;rounded=0;jettySize=auto;" edge="1" parent="1" source="253" target="254"><mxGeometry relative="1" as="geometry" /></mxCell><mxCell id="650" style="endArrow=block;rounded=0;jettySize=auto;" edge="1" parent="1" source="253" target="255"><mxGeometry relative="1" as="geometry" /></mxCell><mxCell id="651" style="endArrow=block;rounded=0;jettySize=auto;" edge="1" parent="1" source="253" target="256"><mxGeometry relative="1" as="geometry" /></mxCell><mxCell id="652" style="endArrow=block;rounded=0;jettySize=auto;" edge="1" parent="1" source="247" target="257"><mxGeometry relative="1" as="geometry" /></mxCell><mxCell id="653" style="endArrow=block;rounded=0;jettySize=auto;" edge="1" parent="1" source="247" target="258"><mxGeometry relative="1" as="geometry" /></mxCell><mxCell id="654" style="endArrow=block;rounded=0;jettySize=auto;" edge="1" parent="1" source="245" target="259"><mxGeometry relative="1" as="geometry" /></mxCell><mxCell id="655" style="endArrow=block;rounded=0;jettySize=auto;" edge="1" parent="1" source="245" target="260"><mxGeometry relative="1" as="geometry" /></mxCell><mxCell id="656" style="endArrow=block;rounded=0;jettySize=auto;" edge="1" parent="1" source="239" target="261"><mxGeometry relative="1" as="geometry" /></mxCell><mxCell id="657" style="endArrow=block;rounded=0;jettySize=auto;" edge="1" parent="1" source="261" target="262"><mxGeometry relative="1" as="geometry" /></mxCell><mxCell id="658" style="endArrow=block;rounded=0;jettySize=auto;" edge="1" parent="1" source="262" target="263"><mxGeometry relative="1" as="geometry" /></mxCell><mxCell id="659" style="endArrow=block;rounded=0;jettySize=auto;" edge="1" parent="1" source="262" target="264"><mxGeometry relative="1" as="geometry" /></mxCell><mxCell id="660" style="endArrow=block;rounded=0;jettySize=auto;" edge="1" parent="1" source="264" target="265"><mxGeometry relative="1" as="geometry" /></mxCell><mxCell id="661" style="endArrow=block;rounded=0;jettySize=auto;" edge="1" parent="1" source="264" target="266"><mxGeometry relative="1" as="geometry" /></mxCell><mxCell id="662" style="endArrow=block;rounded=0;jettySize=auto;" edge="1" parent="1" source="264" target="267"><mxGeometry relative="1" as="geometry" /></mxCell><mxCell id="663" style="endArrow=block;rounded=0;jettySize=auto;" edge="1" parent="1" source="264" target="268"><mxGeometry relative="1" as="geometry" /></mxCell><mxCell id="664" style="endArrow=block;rounded=0;jettySize=auto;" edge="1" parent="1" source="261" target="269"><mxGeometry relative="1" as="geometry" /></mxCell><mxCell id="665" style="endArrow=block;rounded=0;jettySize=auto;" edge="1" parent="1" source="269" target="270"><mxGeometry relative="1" as="geometry" /></mxCell><mxCell id="666" style="endArrow=block;rounded=0;jettySize=auto;" edge="1" parent="1" source="269" target="271"><mxGeometry relative="1" as="geometry" /></mxCell><mxCell id="667" style="endArrow=block;rounded=0;jettySize=auto;" edge="1" parent="1" source="271" target="272"><mxGeometry relative="1" as="geometry" /></mxCell><mxCell id="668" style="endArrow=block;rounded=0;jettySize=auto;" edge="1" parent="1" source="271" target="273"><mxGeometry relative="1" as="geometry" /></mxCell><mxCell id="669" style="endArrow=block;rounded=0;jettySize=auto;" edge="1" parent="1" source="271" target="274"><mxGeometry relative="1" as="geometry" /></mxCell><mxCell id="670" style="endArrow=block;rounded=0;jettySize=auto;" edge="1" parent="1" source="274" target="275"><mxGeometry relative="1" as="geometry" /></mxCell><mxCell id="671" style="endArrow=block;rounded=0;jettySize=auto;" edge="1" parent="1" source="274" target="276"><mxGeometry relative="1" as="geometry" /></mxCell><mxCell id="672" style="endArrow=block;rounded=0;jettySize=auto;" edge="1" parent="1" source="276" target="277"><mxGeometry relative="1" as="geometry" /></mxCell><mxCell id="673" style="endArrow=block;rounded=0;jettySize=auto;" edge="1" parent="1" source="276" target="278"><mxGeometry relative="1" as="geometry" /></mxCell><mxCell id="674" style="endArrow=block;rounded=0;jettySize=auto;" edge="1" parent="1" source="276" target="279"><mxGeometry relative="1" as="geometry" /></mxCell><mxCell id="675" style="endArrow=block;rounded=0;jettySize=auto;" edge="1" parent="1" source="239" target="280"><mxGeometry relative="1" as="geometry" /></mxCell><mxCell id="676" style="endArrow=block;rounded=0;jettySize=auto;" edge="1" parent="1" source="280" target="281"><mxGeometry relative="1" as="geometry" /></mxCell><mxCell id="677" style="endArrow=block;rounded=0;jettySize=auto;" edge="1" parent="1" source="281" target="282"><mxGeometry relative="1" as="geometry" /></mxCell><mxCell id="678" style="endArrow=block;rounded=0;jettySize=auto;" edge="1" parent="1" source="281" target="283"><mxGeometry relative="1" as="geometry" /></mxCell><mxCell id="679" style="endArrow=block;rounded=0;jettySize=auto;" edge="1" parent="1" source="239" target="284"><mxGeometry relative="1" as="geometry" /></mxCell><mxCell id="680" style="endArrow=block;rounded=0;jettySize=auto;" edge="1" parent="1" source="284" target="285"><mxGeometry relative="1" as="geometry" /></mxCell><mxCell id="681" style="endArrow=block;rounded=0;jettySize=auto;" edge="1" parent="1" source="285" target="286"><mxGeometry relative="1" as="geometry" /></mxCell><mxCell id="682" style="endArrow=block;rounded=0;jettySize=auto;" edge="1" parent="1" source="52" target="287"><mxGeometry relative="1" as="geometry" /></mxCell><mxCell id="683" style="endArrow=block;rounded=0;jettySize=auto;" edge="1" parent="1" source="287" target="288"><mxGeometry relative="1" as="geometry" /></mxCell><mxCell id="684" style="endArrow=block;rounded=0;jettySize=auto;" edge="1" parent="1" source="287" target="289"><mxGeometry relative="1" as="geometry" /></mxCell><mxCell id="685" style="endArrow=block;rounded=0;jettySize=auto;" edge="1" parent="1" source="289" target="290"><mxGeometry relative="1" as="geometry" /></mxCell><mxCell id="686" style="endArrow=block;rounded=0;jettySize=auto;" edge="1" parent="1" source="290" target="291"><mxGeometry relative="1" as="geometry" /></mxCell><mxCell id="687" style="endArrow=block;rounded=0;jettySize=auto;" edge="1" parent="1" source="289" target="292"><mxGeometry relative="1" as="geometry" /></mxCell><mxCell id="688" style="endArrow=block;rounded=0;jettySize=auto;" edge="1" parent="1" source="292" target="293"><mxGeometry relative="1" as="geometry" /></mxCell><mxCell id="689" style="endArrow=block;rounded=0;jettySize=auto;" edge="1" parent="1" source="293" target="294"><mxGeometry relative="1" as="geometry" /></mxCell><mxCell id="690" style="endArrow=block;rounded=0;jettySize=auto;" edge="1" parent="1" source="294" target="295"><mxGeometry relative="1" as="geometry" /></mxCell><mxCell id="691" style="endArrow=block;rounded=0;jettySize=auto;" edge="1" parent="1" source="295" target="296"><mxGeometry relative="1" as="geometry" /></mxCell><mxCell id="692" style="endArrow=block;rounded=0;jettySize=auto;" edge="1" parent="1" source="296" target="297"><mxGeometry relative="1" as="geometry" /></mxCell><mxCell id="693" style="endArrow=block;rounded=0;jettySize=auto;" edge="1" parent="1" source="297" target="298"><mxGeometry relative="1" as="geometry" /></mxCell><mxCell id="694" style="endArrow=block;rounded=0;jettySize=auto;" edge="1" parent="1" source="298" target="299"><mxGeometry relative="1" as="geometry" /></mxCell><mxCell id="695" style="endArrow=block;rounded=0;jettySize=auto;" edge="1" parent="1" source="298" target="300"><mxGeometry relative="1" as="geometry" /></mxCell><mxCell id="696" style="endArrow=block;rounded=0;jettySize=auto;" edge="1" parent="1" source="300" target="301"><mxGeometry relative="1" as="geometry" /></mxCell><mxCell id="697" style="endArrow=block;rounded=0;jettySize=auto;" edge="1" parent="1" source="301" target="302"><mxGeometry relative="1" as="geometry" /></mxCell><mxCell id="698" style="endArrow=block;rounded=0;jettySize=auto;" edge="1" parent="1" source="301" target="303"><mxGeometry relative="1" as="geometry" /></mxCell><mxCell id="699" style="endArrow=block;rounded=0;jettySize=auto;" edge="1" parent="1" source="296" target="304"><mxGeometry relative="1" as="geometry" /></mxCell><mxCell id="700" style="endArrow=block;rounded=0;jettySize=auto;" edge="1" parent="1" source="304" target="305"><mxGeometry relative="1" as="geometry" /></mxCell><mxCell id="701" style="endArrow=block;rounded=0;jettySize=auto;" edge="1" parent="1" source="305" target="306"><mxGeometry relative="1" as="geometry" /></mxCell><mxCell id="702" style="endArrow=block;rounded=0;jettySize=auto;" edge="1" parent="1" source="305" target="307"><mxGeometry relative="1" as="geometry" /></mxCell><mxCell id="703" style="endArrow=block;rounded=0;jettySize=auto;" edge="1" parent="1" source="294" target="308"><mxGeometry relative="1" as="geometry" /></mxCell><mxCell id="704" style="endArrow=block;rounded=0;jettySize=auto;" edge="1" parent="1" source="308" target="309"><mxGeometry relative="1" as="geometry" /></mxCell><mxCell id="705" style="endArrow=block;rounded=0;jettySize=auto;" edge="1" parent="1" source="309" target="310"><mxGeometry relative="1" as="geometry" /></mxCell><mxCell id="706" style="endArrow=block;rounded=0;jettySize=auto;" edge="1" parent="1" source="309" target="311"><mxGeometry relative="1" as="geometry" /></mxCell><mxCell id="707" style="endArrow=block;rounded=0;jettySize=auto;" edge="1" parent="1" source="292" target="312"><mxGeometry relative="1" as="geometry" /></mxCell><mxCell id="708" style="endArrow=block;rounded=0;jettySize=auto;" edge="1" parent="1" source="312" target="313"><mxGeometry relative="1" as="geometry" /></mxCell><mxCell id="709" style="endArrow=block;rounded=0;jettySize=auto;" edge="1" parent="1" source="313" target="314"><mxGeometry relative="1" as="geometry" /></mxCell><mxCell id="710" style="endArrow=block;rounded=0;jettySize=auto;" edge="1" parent="1" source="313" target="315"><mxGeometry relative="1" as="geometry" /></mxCell><mxCell id="711" style="endArrow=block;rounded=0;jettySize=auto;" edge="1" parent="1" source="315" target="316"><mxGeometry relative="1" as="geometry" /></mxCell><mxCell id="712" style="endArrow=block;rounded=0;jettySize=auto;" edge="1" parent="1" source="316" target="317"><mxGeometry relative="1" as="geometry" /></mxCell><mxCell id="713" style="endArrow=block;rounded=0;jettySize=auto;" edge="1" parent="1" source="316" target="318"><mxGeometry relative="1" as="geometry" /></mxCell><mxCell id="714" style="endArrow=block;rounded=0;jettySize=auto;" edge="1" parent="1" source="289" target="319"><mxGeometry relative="1" as="geometry" /></mxCell><mxCell id="715" style="endArrow=block;rounded=0;jettySize=auto;" edge="1" parent="1" source="319" target="320"><mxGeometry relative="1" as="geometry" /></mxCell><mxCell id="716" style="endArrow=block;rounded=0;jettySize=auto;" edge="1" parent="1" source="287" target="321"><mxGeometry relative="1" as="geometry" /></mxCell><mxCell id="717" style="endArrow=block;rounded=0;jettySize=auto;" edge="1" parent="1" source="321" target="322"><mxGeometry relative="1" as="geometry" /></mxCell><mxCell id="718" style="endArrow=block;rounded=0;jettySize=auto;" edge="1" parent="1" source="322" target="323"><mxGeometry relative="1" as="geometry" /></mxCell><mxCell id="719" style="endArrow=block;rounded=0;jettySize=auto;" edge="1" parent="1" source="321" target="324"><mxGeometry relative="1" as="geometry" /></mxCell><mxCell id="720" style="endArrow=block;rounded=0;jettySize=auto;" edge="1" parent="1" source="321" target="325"><mxGeometry relative="1" as="geometry" /></mxCell><mxCell id="721" style="endArrow=block;rounded=0;jettySize=auto;" edge="1" parent="1" source="325" target="326"><mxGeometry relative="1" as="geometry" /></mxCell><mxCell id="722" style="endArrow=block;rounded=0;jettySize=auto;" edge="1" parent="1" source="326" target="327"><mxGeometry relative="1" as="geometry" /></mxCell><mxCell id="723" style="endArrow=block;rounded=0;jettySize=auto;" edge="1" parent="1" source="327" target="328"><mxGeometry relative="1" as="geometry" /></mxCell><mxCell id="724" style="endArrow=block;rounded=0;jettySize=auto;" edge="1" parent="1" source="327" target="329"><mxGeometry relative="1" as="geometry" /></mxCell><mxCell id="725" style="endArrow=block;rounded=0;jettySize=auto;" edge="1" parent="1" source="327" target="330"><mxGeometry relative="1" as="geometry" /></mxCell><mxCell id="726" style="endArrow=block;rounded=0;jettySize=auto;" edge="1" parent="1" source="330" target="331"><mxGeometry relative="1" as="geometry" /></mxCell><mxCell id="727" style="endArrow=block;rounded=0;jettySize=auto;" edge="1" parent="1" source="331" target="332"><mxGeometry relative="1" as="geometry" /></mxCell><mxCell id="728" style="endArrow=block;rounded=0;jettySize=auto;" edge="1" parent="1" source="331" target="333"><mxGeometry relative="1" as="geometry" /></mxCell><mxCell id="729" style="endArrow=block;rounded=0;jettySize=auto;" edge="1" parent="1" source="331" target="334"><mxGeometry relative="1" as="geometry" /></mxCell><mxCell id="730" style="endArrow=block;rounded=0;jettySize=auto;" edge="1" parent="1" source="325" target="335"><mxGeometry relative="1" as="geometry" /></mxCell><mxCell id="731" style="endArrow=block;rounded=0;jettySize=auto;" edge="1" parent="1" source="325" target="336"><mxGeometry relative="1" as="geometry" /></mxCell><mxCell id="732" style="endArrow=block;rounded=0;jettySize=auto;" edge="1" parent="1" source="287" target="337"><mxGeometry relative="1" as="geometry" /></mxCell><mxCell id="733" style="endArrow=block;rounded=0;jettySize=auto;" edge="1" parent="1" source="337" target="338"><mxGeometry relative="1" as="geometry" /></mxCell><mxCell id="734" style="endArrow=block;rounded=0;jettySize=auto;" edge="1" parent="1" source="338" target="339"><mxGeometry relative="1" as="geometry" /></mxCell><mxCell id="735" style="endArrow=block;rounded=0;jettySize=auto;" edge="1" parent="1" source="337" target="340"><mxGeometry relative="1" as="geometry" /></mxCell><mxCell id="736" style="endArrow=block;rounded=0;jettySize=auto;" edge="1" parent="1" source="340" target="341"><mxGeometry relative="1" as="geometry" /></mxCell><mxCell id="737" style="endArrow=block;rounded=0;jettySize=auto;" edge="1" parent="1" source="340" target="342"><mxGeometry relative="1" as="geometry" /></mxCell><mxCell id="738" style="endArrow=block;rounded=0;jettySize=auto;" edge="1" parent="1" source="342" target="343"><mxGeometry relative="1" as="geometry" /></mxCell><mxCell id="739" style="endArrow=block;rounded=0;jettySize=auto;" edge="1" parent="1" source="343" target="344"><mxGeometry relative="1" as="geometry" /></mxCell><mxCell id="740" style="endArrow=block;rounded=0;jettySize=auto;" edge="1" parent="1" source="344" target="345"><mxGeometry relative="1" as="geometry" /></mxCell><mxCell id="741" style="endArrow=block;rounded=0;jettySize=auto;" edge="1" parent="1" source="344" target="346"><mxGeometry relative="1" as="geometry" /></mxCell><mxCell id="742" style="endArrow=block;rounded=0;jettySize=auto;" edge="1" parent="1" source="346" target="347"><mxGeometry relative="1" as="geometry" /></mxCell><mxCell id="743" style="endArrow=block;rounded=0;jettySize=auto;" edge="1" parent="1" source="347" target="348"><mxGeometry relative="1" as="geometry" /></mxCell><mxCell id="744" style="endArrow=block;rounded=0;jettySize=auto;" edge="1" parent="1" source="347" target="349"><mxGeometry relative="1" as="geometry" /></mxCell><mxCell id="745" style="endArrow=block;rounded=0;jettySize=auto;" edge="1" parent="1" source="342" target="350"><mxGeometry relative="1" as="geometry" /></mxCell><mxCell id="746" style="endArrow=block;rounded=0;jettySize=auto;" edge="1" parent="1" source="350" target="351"><mxGeometry relative="1" as="geometry" /></mxCell><mxCell id="747" style="endArrow=block;rounded=0;jettySize=auto;" edge="1" parent="1" source="351" target="352"><mxGeometry relative="1" as="geometry" /></mxCell><mxCell id="748" style="endArrow=block;rounded=0;jettySize=auto;" edge="1" parent="1" source="351" target="353"><mxGeometry relative="1" as="geometry" /></mxCell><mxCell id="749" style="endArrow=block;rounded=0;jettySize=auto;" edge="1" parent="1" source="337" target="354"><mxGeometry relative="1" as="geometry" /></mxCell><mxCell id="750" style="endArrow=block;rounded=0;jettySize=auto;" edge="1" parent="1" source="354" target="355"><mxGeometry relative="1" as="geometry" /></mxCell><mxCell id="751" style="endArrow=block;rounded=0;jettySize=auto;" edge="1" parent="1" source="354" target="356"><mxGeometry relative="1" as="geometry" /></mxCell><mxCell id="752" style="endArrow=block;rounded=0;jettySize=auto;" edge="1" parent="1" source="356" target="357"><mxGeometry relative="1" as="geometry" /></mxCell><mxCell id="753" style="endArrow=block;rounded=0;jettySize=auto;" edge="1" parent="1" source="356" target="358"><mxGeometry relative="1" as="geometry" /></mxCell><mxCell id="754" style="endArrow=block;rounded=0;jettySize=auto;" edge="1" parent="1" source="356" target="359"><mxGeometry relative="1" as="geometry" /></mxCell><mxCell id="755" style="endArrow=block;rounded=0;jettySize=auto;" edge="1" parent="1" source="356" target="360"><mxGeometry relative="1" as="geometry" /></mxCell><mxCell id="756" style="endArrow=block;rounded=0;jettySize=auto;" edge="1" parent="1" source="52" target="361"><mxGeometry relative="1" as="geometry" /></mxCell><mxCell id="757" style="endArrow=block;rounded=0;jettySize=auto;" edge="1" parent="1" source="361" target="362"><mxGeometry relative="1" as="geometry" /></mxCell><mxCell id="758" style="endArrow=block;rounded=0;jettySize=auto;" edge="1" parent="1" source="361" target="363"><mxGeometry relative="1" as="geometry" /></mxCell><mxCell id="759" style="endArrow=block;rounded=0;jettySize=auto;" edge="1" parent="1" source="363" target="364"><mxGeometry relative="1" as="geometry" /></mxCell><mxCell id="760" style="endArrow=block;rounded=0;jettySize=auto;" edge="1" parent="1" source="363" target="365"><mxGeometry relative="1" as="geometry" /></mxCell><mxCell id="761" style="endArrow=block;rounded=0;jettySize=auto;" edge="1" parent="1" source="365" target="366"><mxGeometry relative="1" as="geometry" /></mxCell><mxCell id="762" style="endArrow=block;rounded=0;jettySize=auto;" edge="1" parent="1" source="366" target="367"><mxGeometry relative="1" as="geometry" /></mxCell><mxCell id="763" style="endArrow=block;rounded=0;jettySize=auto;" edge="1" parent="1" source="367" target="368"><mxGeometry relative="1" as="geometry" /></mxCell><mxCell id="764" style="endArrow=block;rounded=0;jettySize=auto;" edge="1" parent="1" source="368" target="369"><mxGeometry relative="1" as="geometry" /></mxCell><mxCell id="765" style="endArrow=block;rounded=0;jettySize=auto;" edge="1" parent="1" source="368" target="370"><mxGeometry relative="1" as="geometry" /></mxCell><mxCell id="766" style="endArrow=block;rounded=0;jettySize=auto;" edge="1" parent="1" source="365" target="371"><mxGeometry relative="1" as="geometry" /></mxCell><mxCell id="767" style="endArrow=block;rounded=0;jettySize=auto;" edge="1" parent="1" source="371" target="372"><mxGeometry relative="1" as="geometry" /></mxCell><mxCell id="768" style="endArrow=block;rounded=0;jettySize=auto;" edge="1" parent="1" source="372" target="373"><mxGeometry relative="1" as="geometry" /></mxCell><mxCell id="769" style="endArrow=block;rounded=0;jettySize=auto;" edge="1" parent="1" source="373" target="374"><mxGeometry relative="1" as="geometry" /></mxCell><mxCell id="770" style="endArrow=block;rounded=0;jettySize=auto;" edge="1" parent="1" source="361" target="375"><mxGeometry relative="1" as="geometry" /></mxCell><mxCell id="771" style="endArrow=block;rounded=0;jettySize=auto;" edge="1" parent="1" source="375" target="376"><mxGeometry relative="1" as="geometry" /></mxCell><mxCell id="772" style="endArrow=block;rounded=0;jettySize=auto;" edge="1" parent="1" source="375" target="377"><mxGeometry relative="1" as="geometry" /></mxCell><mxCell id="773" style="endArrow=block;rounded=0;jettySize=auto;" edge="1" parent="1" source="377" target="378"><mxGeometry relative="1" as="geometry" /></mxCell><mxCell id="774" style="endArrow=block;rounded=0;jettySize=auto;" edge="1" parent="1" source="378" target="379"><mxGeometry relative="1" as="geometry" /></mxCell><mxCell id="775" style="endArrow=block;rounded=0;jettySize=auto;" edge="1" parent="1" source="377" target="380"><mxGeometry relative="1" as="geometry" /></mxCell><mxCell id="776" style="endArrow=block;rounded=0;jettySize=auto;" edge="1" parent="1" source="380" target="381"><mxGeometry relative="1" as="geometry" /></mxCell><mxCell id="777" style="endArrow=block;rounded=0;jettySize=auto;" edge="1" parent="1" source="9" target="382"><mxGeometry relative="1" as="geometry" /></mxCell><mxCell id="778" style="endArrow=block;rounded=0;jettySize=auto;" edge="1" parent="1" source="382" target="383"><mxGeometry relative="1" as="geometry" /></mxCell><mxCell id="779" style="endArrow=block;rounded=0;jettySize=auto;" edge="1" parent="1" source="383" target="384"><mxGeometry relative="1" as="geometry" /></mxCell><mxCell id="780" style="endArrow=block;rounded=0;jettySize=auto;" edge="1" parent="1" source="383" target="385"><mxGeometry relative="1" as="geometry" /></mxCell><mxCell id="781" style="endArrow=block;rounded=0;jettySize=auto;" edge="1" parent="1" source="382" target="386"><mxGeometry relative="1" as="geometry" /></mxCell><mxCell id="782" style="endArrow=block;rounded=0;jettySize=auto;" edge="1" parent="1" source="386" target="387"><mxGeometry relative="1" as="geometry" /></mxCell><mxCell id="783" style="endArrow=block;rounded=0;jettySize=auto;" edge="1" parent="1" source="386" target="388"><mxGeometry relative="1" as="geometry" /></mxCell><mxCell id="784" style="endArrow=block;rounded=0;jettySize=auto;" edge="1" parent="1" source="388" target="389"><mxGeometry relative="1" as="geometry" /></mxCell><mxCell id="785" style="endArrow=block;rounded=0;jettySize=auto;" edge="1" parent="1" source="9" target="390"><mxGeometry relative="1" as="geometry" /></mxCell><mxCell id="786" style="endArrow=block;rounded=0;jettySize=auto;" edge="1" parent="1" source="390" target="391"><mxGeometry relative="1" as="geometry" /></mxCell><mxCell id="787" style="endArrow=block;rounded=0;jettySize=auto;" edge="1" parent="1" source="391" target="392"><mxGeometry relative="1" as="geometry" /></mxCell><mxCell id="788" style="endArrow=block;rounded=0;jettySize=auto;" edge="1" parent="1" source="392" target="393"><mxGeometry relative="1" as="geometry" /></mxCell><mxCell id="789" style="endArrow=block;rounded=0;jettySize=auto;" edge="1" parent="1" source="391" target="394"><mxGeometry relative="1" as="geometry" /></mxCell><mxCell id="790" style="endArrow=block;rounded=0;jettySize=auto;" edge="1" parent="1" source="394" target="395"><mxGeometry relative="1" as="geometry" /></mxCell><mxCell id="791" style="endArrow=block;rounded=0;jettySize=auto;" edge="1" parent="1" source="391" target="396"><mxGeometry relative="1" as="geometry" /></mxCell><mxCell id="792" style="endArrow=block;rounded=0;jettySize=auto;" edge="1" parent="1" source="396" target="397"><mxGeometry relative="1" as="geometry" /></mxCell></root></mxGraphModel></diagram></mxfile>